<svg xmlns="http://www.w3.org/2000/svg" viewBox="0 0 46.43 45.4"><g id="Layer_2" data-name="Layer 2"><g id="Poster_1" data-name="Poster 1"><path id="ic_notifications_active_24px" data-name="ic notifications active 24px" d="M12.92,3.68,9.59.35A24.3,24.3,0,0,0,0,18.63H4.66A19.67,19.67,0,0,1,12.92,3.68Zm28.85,15h4.66A24.4,24.4,0,0,0,36.83.35l-3.3,3.33A19.74,19.74,0,0,1,41.77,18.63Zm-4.59,1.16c0-7.15-3.81-13.13-10.47-14.72V3.49a3.5,3.5,0,0,0-7,0h0V5.08C13,6.65,9.24,12.62,9.24,19.79V31.43L4.59,36.09v2.32H41.84V36.09l-4.66-4.66Zm-14,25.61a3.58,3.58,0,0,0,.93-.09,4.73,4.73,0,0,0,3.36-2.75,4.57,4.57,0,0,0,.35-1.82H18.54a4.69,4.69,0,0,0,4.67,4.66Z"/></g></g></svg>