<svg xmlns="http://www.w3.org/2000/svg" viewBox="0 0 282.68 477.28">
    <g id="Layer_2" data-name="Layer 2">
        <g id="Layer_1-2" data-name="Layer 1">
            <path d="M141.53,394.41q27.48,0,55,0c8.81,0,15.3,6.08,15.36,14.31s-6.64,14.47-15.27,14.48q-55.26,0-110.51,0c-7.73,0-13.48-4.65-14.91-11.91A14.28,14.28,0,0,1,80,395.42a16,16,0,0,1,6.32-1Q113.91,394.43,141.53,394.41Z" />
            <path d="M141.44,350.27c18.71,0,37.42,0,56.14,0,7.27,0,12.9,5.09,14.1,12.43,1.06,6.48-3.05,13.1-9.54,15.44a14.57,14.57,0,0,1-4.89.88q-55.83,0-111.68,0a14.41,14.41,0,0,1-13.9-9.83,14.17,14.17,0,0,1,4.69-15.82,13.73,13.73,0,0,1,9-3.11q28.07,0,56.13,0Z" />
            <path d="M141.44,438.54c13.82,0,27.64.09,41.46-.07,2.9,0,3.4.8,3,3.46-2.58,16.94-12.9,27.21-28.48,32.62-19.24,6.69-40.93.76-52.82-14.05a36.41,36.41,0,0,1-7.84-19c-.24-2.12.08-3.05,2.63-3C113.41,438.62,127.42,438.55,141.44,438.54Z" />
            <path d="M280.33,115.05C267.6,46,204.44-3.8,133.93.23,92.6,2.59,58.38,19.76,32.2,51.66,4.48,85.47-5.26,124.44,2.66,167.5,6.19,186.69,14.78,204,24.55,220.69,33.73,236.4,44,251.44,52.74,267.42c11,20.09,19.39,40.9,18,64.4-.16,2.83.9,3.13,3.31,3.12,22.35-.08,44.7-.05,67.06-.05,22.55,0,45.09,0,67.64.05,2.37,0,3.19-.47,3.13-3-.21-8.63.17-17.24,2.18-25.7,3.8-16.07,11.14-30.64,19.26-44.85,9.47-16.56,20.25-32.33,29.53-49C279.83,181.89,286.72,149.78,280.33,115.05Zm-36.86,81c-8.33,16-18.45,30.9-27.7,46.33-10.18,17-19.33,34.45-24.63,53.66a96.38,96.38,0,0,0-2.48,11.76c-.29,2-1,2.3-2.8,2.29-14.9-.06-29.8,0-44.7,0-14.61,0-29.21,0-43.81,0-2,0-3-.26-3.38-2.66C90.55,286,81.09,266.9,70.47,248.33,61,231.78,50,216.16,41,199.31c-8-15-14-30.55-15.65-47.61-2-21.38,1.42-41.89,11.07-61C54.59,54.6,83.68,32.54,123.7,26.22,185.84,16.39,244.49,58.13,256,119.6,261,146.61,256,171.89,243.47,196Z" />
        </g>
    </g>
</svg>