<svg xmlns="http://www.w3.org/2000/svg" width="24.223" height="24.223" viewBox="0 0 24.223 24.223">
  <path id="Path_2116" data-name="Path 2116" d="M1,23.188c0-3.691,0-7.382.016-11.1.061-.087.1-.151.153-.21a.987.987,0,0,1,.842-.281c1.45,0,2.9,0,4.35,0a.555.555,0,0,0,.316-.095c.751-.574,1.513-1.135,2.233-1.746.5-.423.941-.913,1.4-1.385a6.359,6.359,0,0,0,1.38-2.1q.657-1.682,1.282-3.377a2.771,2.771,0,0,1,1.408-1.755c.047-.021.072-.092.108-.139.364,0,.727,0,1.119.018A1.894,1.894,0,0,1,17,2.007a3.9,3.9,0,0,1,.365,1.382,7.477,7.477,0,0,1,.046,1.287c-.033.608-.11,1.215-.183,1.82-.057.472-.13.942-.212,1.41-.092.532-.2,1.061-.307,1.61h.268q2.387,0,4.773,0a4.072,4.072,0,0,1,.648.048,2.5,2.5,0,0,1,2.065,2.362,2.4,2.4,0,0,1-.375,1.436,6.031,6.031,0,0,1,.654.751,8.891,8.891,0,0,1,.482,1.031c0,.285,0,.57-.018.883-.125.309-.213.6-.345.87a2.115,2.115,0,0,1-.722.785.207.207,0,0,0-.028.2,2.443,2.443,0,0,1,.282,1.859,2.475,2.475,0,0,1-1.206,1.61.2.2,0,0,0-.065.179,2.493,2.493,0,0,1-.95,3.362c-.248.134-.52.223-.781.333-2.54,0-5.08,0-7.65-.019-.632-.07-1.24-.089-1.836-.178-.724-.108-1.446-.246-2.156-.425-.786-.2-1.555-.461-2.333-.689a4.434,4.434,0,0,0-1.1-.283c-1.52-.032-3.041-.013-4.562-.015-.083,0-.166-.026-.249-.032-.258-.018-.348-.252-.51-.393m9.7-13.081c-.413.381-.81.781-1.242,1.139-.579.481-1.178.939-1.785,1.384A.39.39,0,0,0,7.478,13q.008,4.233,0,8.467v.922c.7.221,1.392.484,2.1.652.921.217,1.857.376,2.793.525a12.556,12.556,0,0,0,1.844.187c2.239.022,4.478.007,6.716.01a1.041,1.041,0,0,0,1.008-1.069A1.012,1.012,0,0,0,20.9,21.682a.776.776,0,0,1-.738-.747.755.755,0,0,1,.766-.729,11.844,11.844,0,0,0,1.285-.054,1.03,1.03,0,0,0-.313-2.027.753.753,0,0,1-.7-.795.724.724,0,0,1,.726-.678,5.7,5.7,0,0,0,.932-.042,1.027,1.027,0,0,0,.894-1.117,1.049,1.049,0,0,0-1.028-.918,4.487,4.487,0,0,1-.709,0c-.5-.044-.781-.261-.812-.7a.745.745,0,0,1,.8-.806A1.085,1.085,0,0,0,23,12.011a1.112,1.112,0,0,0-1.21-1.027c-2.01,0-4.02,0-6.031,0a.738.738,0,0,1-.684-1.038c.125-.55.251-1.1.355-1.654.109-.58.2-1.163.286-1.747a15.37,15.37,0,0,0,.182-1.561,14.872,14.872,0,0,0-.046-1.713c-.022-.289-.068-.608-.4-.745a.689.689,0,0,0-.917.466c-.411,1.059-.8,2.126-1.225,3.181a13.81,13.81,0,0,1-.78,1.713,9.651,9.651,0,0,1-1.83,2.224M2.467,15.5v6.634H6V13.125H2.467Z" transform="translate(25.223 25.223) rotate(180)"/>
</svg>
