<svg xmlns="http://www.w3.org/2000/svg" width="726.307" height="536.64" viewBox="0 0 726.307 536.64">
  <g id="_404" data-name="404" transform="translate(-596.919 -298.211)">
    <text id="ERROR" transform="translate(859 793.289)" fill="#fff" font-size="60" font-family="OpenSans-ExtraBold, Open Sans" font-weight="800"><tspan x="0" y="0">ERROR</tspan></text>
    <g id="Group_1038" data-name="Group 1038" transform="translate(0.072)">
      <g id="Group_766" data-name="Group 766" transform="translate(713.912 510.705)">
        <path id="Path_2633" data-name="Path 2633" d="M-422.609,642.442h-21.533v37.85H-496.3v-37.85h-77.974V603.656l81.317-118.9h48.818V602.986h21.533ZM-496.3,602.986V580.25q0-6.419.468-17.32t.736-11.435h-1.471a141.341,141.341,0,0,1-10.3,19.26l-21.667,32.232Z" transform="translate(574.277 -481.947)" fill="#e4801d"/>
        <path id="Path_2634" data-name="Path 2634" d="M-332.3,583.891q0,51.895-17.386,76.034t-53.231,24.14q-35.041,0-52.828-25.211t-17.788-74.964q0-52.161,17.386-76.5t53.231-24.341q34.908,0,52.763,25.346T-332.3,583.891Zm-88.671,0q0,33.171,4.147,45.608t13.908,12.438q9.9,0,13.977-12.84t4.078-45.205q0-32.5-4.145-45.542t-13.91-13.039q-9.762,0-13.908,12.571T-420.971,583.891Z" transform="translate(638.976 -483.046)" fill="#e4801d"/>
        <path id="Path_2635" data-name="Path 2635" d="M-227.15,642.442h-21.533v37.85h-52.16v-37.85h-77.974V603.656l81.316-118.9h48.818V602.986h21.533Zm-73.693-39.456V580.25q0-6.419.468-17.32t.734-11.435h-1.47a141.51,141.51,0,0,1-10.3,19.26l-21.667,32.232Z" transform="translate(699.804 -481.947)" fill="#e4801d"/>
      </g>
      <g id="Group_767" data-name="Group 767" transform="translate(597.928 513.514)">
        <line id="Line_1" data-name="Line 1" x2="79.05" transform="translate(37.613 43.387)" fill="none" stroke="#c2c2c2" stroke-linecap="round" stroke-linejoin="round" stroke-width="2.163"/>
        <line id="Line_2" data-name="Line 2" x2="16.874" transform="translate(135.638 43.387)" fill="none" stroke="#c2c2c2" stroke-linecap="round" stroke-linejoin="round" stroke-width="2.163"/>
        <line id="Line_3" data-name="Line 3" x2="141.518" transform="translate(23.297 21.137)" fill="none" stroke="#c2c2c2" stroke-linecap="round" stroke-linejoin="round" stroke-width="2.163"/>
        <line id="Line_4" data-name="Line 4" x1="11.648" transform="translate(0 21.137)" fill="none" stroke="#c2c2c2" stroke-linecap="round" stroke-linejoin="round" stroke-width="2.163"/>
        <line id="Line_5" data-name="Line 5" x2="46.984" transform="translate(23.297)" fill="none" stroke="#c2c2c2" stroke-linecap="round" stroke-linejoin="round" stroke-width="2.163"/>
        <line id="Line_6" data-name="Line 6" x2="98.673" transform="translate(82.86)" fill="none" stroke="#c2c2c2" stroke-linecap="round" stroke-linejoin="round" stroke-width="2.163"/>
      </g>
      <g id="Group_768" data-name="Group 768" transform="translate(1194.317 690.031)">
        <line id="Line_7" data-name="Line 7" x2="84.593" transform="translate(0 43.387)" fill="none" stroke="#c2c2c2" stroke-linecap="round" stroke-linejoin="round" stroke-width="2.163"/>
        <line id="Line_8" data-name="Line 8" x2="12.236" transform="translate(98.352 43.387)" fill="none" stroke="#c2c2c2" stroke-linecap="round" stroke-linejoin="round" stroke-width="2.163"/>
        <line id="Line_9" data-name="Line 9" x2="110.862" transform="translate(16.893 21.137)" fill="none" stroke="#c2c2c2" stroke-linecap="round" stroke-linejoin="round" stroke-width="2.163"/>
        <line id="Line_10" data-name="Line 10" x1="8.446" transform="translate(0 21.137)" fill="none" stroke="#c2c2c2" stroke-linecap="round" stroke-linejoin="round" stroke-width="2.163"/>
        <line id="Line_11" data-name="Line 11" x2="50.961" fill="none" stroke="#c2c2c2" stroke-linecap="round" stroke-linejoin="round" stroke-width="2.163"/>
        <line id="Line_12" data-name="Line 12" x2="38.27" transform="translate(60.082)" fill="none" stroke="#c2c2c2" stroke-linecap="round" stroke-linejoin="round" stroke-width="2.163"/>
      </g>
      <g id="Group_769" data-name="Group 769" transform="translate(724.037 509.958)">
        <path id="Path_2636" data-name="Path 2636" d="M-416.446,641.987h-21.533v37.851h-52.16V641.987h-77.974V603.2l81.317-118.9h48.816V602.531h21.533Zm-73.693-39.456V579.795q0-6.419.468-17.32t.736-11.435h-1.473a141.224,141.224,0,0,1-10.3,19.26l-21.667,32.232Z" transform="translate(568.112 -481.492)" fill="none" stroke="#fff" stroke-miterlimit="10" stroke-width="3.268"/>
        <path id="Path_2637" data-name="Path 2637" d="M-326.135,583.436q0,51.894-17.388,76.034t-53.229,24.141q-35.043,0-52.83-25.211t-17.787-74.964q0-52.161,17.386-76.5t53.231-24.341q34.908,0,52.761,25.346T-326.135,583.436Zm-88.673,0q0,33.171,4.147,45.607t13.91,12.438q9.9,0,13.975-12.84t4.079-45.205q0-32.5-4.145-45.542t-13.91-13.039q-9.765,0-13.91,12.571T-414.807,583.436Z" transform="translate(632.811 -482.591)" fill="none" stroke="#fff" stroke-miterlimit="10" stroke-width="3.268"/>
        <path id="Path_2638" data-name="Path 2638" d="M-220.986,641.987h-21.531v37.851h-52.162V641.987h-77.974V603.2l81.317-118.9h48.818V602.531h21.531Zm-73.693-39.456V579.795q0-6.419.468-17.32t.736-11.435h-1.47a141.237,141.237,0,0,1-10.3,19.26l-21.666,32.232Z" transform="translate(693.638 -481.492)" fill="none" stroke="#fff" stroke-miterlimit="10" stroke-width="3.268"/>
      </g>
      <g id="Group_770" data-name="Group 770" transform="translate(1195.211 533.951)">
        <line id="Line_13" data-name="Line 13" y1="18.128" transform="translate(36.024)" fill="none" stroke="#c2c2c2" stroke-linecap="round" stroke-linejoin="round" stroke-width="2.163"/>
        <line id="Line_14" data-name="Line 14" x1="12.818" y1="12.818" transform="translate(10.551 10.551)" fill="none" stroke="#c2c2c2" stroke-linecap="round" stroke-linejoin="round" stroke-width="2.163"/>
        <line id="Line_15" data-name="Line 15" x1="18.128" transform="translate(0 36.024)" fill="none" stroke="#c2c2c2" stroke-linecap="round" stroke-linejoin="round" stroke-width="2.163"/>
        <line id="Line_16" data-name="Line 16" x1="12.818" y2="12.818" transform="translate(10.551 48.679)" fill="none" stroke="#c2c2c2" stroke-linecap="round" stroke-linejoin="round" stroke-width="2.163"/>
        <line id="Line_17" data-name="Line 17" y2="18.128" transform="translate(36.024 53.92)" fill="none" stroke="#c2c2c2" stroke-linecap="round" stroke-linejoin="round" stroke-width="2.163"/>
        <line id="Line_18" data-name="Line 18" x2="12.818" y2="12.818" transform="translate(48.679 48.679)" fill="none" stroke="#c2c2c2" stroke-linecap="round" stroke-linejoin="round" stroke-width="2.163"/>
        <line id="Line_19" data-name="Line 19" x2="18.128" transform="translate(53.92 36.024)" fill="none" stroke="#c2c2c2" stroke-linecap="round" stroke-linejoin="round" stroke-width="2.163"/>
        <line id="Line_20" data-name="Line 20" y1="12.818" x2="12.818" transform="translate(48.679 10.551)" fill="none" stroke="#c2c2c2" stroke-linecap="round" stroke-linejoin="round" stroke-width="2.163"/>
      </g>
      <g id="Group_771" data-name="Group 771" transform="translate(636.616 629.242)">
        <line id="Line_21" data-name="Line 21" y1="13.103" transform="translate(26.039)" fill="none" stroke="#c2c2c2" stroke-linecap="round" stroke-linejoin="round" stroke-width="2.163"/>
        <line id="Line_22" data-name="Line 22" x1="9.266" y1="9.266" transform="translate(7.627 7.627)" fill="none" stroke="#c2c2c2" stroke-linecap="round" stroke-linejoin="round" stroke-width="2.163"/>
        <line id="Line_23" data-name="Line 23" x1="13.103" transform="translate(0 26.039)" fill="none" stroke="#c2c2c2" stroke-linecap="round" stroke-linejoin="round" stroke-width="2.163"/>
        <line id="Line_24" data-name="Line 24" x1="9.266" y2="9.266" transform="translate(7.627 35.186)" fill="none" stroke="#c2c2c2" stroke-linecap="round" stroke-linejoin="round" stroke-width="2.163"/>
        <line id="Line_25" data-name="Line 25" y2="13.103" transform="translate(26.039 38.975)" fill="none" stroke="#c2c2c2" stroke-linecap="round" stroke-linejoin="round" stroke-width="2.163"/>
        <line id="Line_26" data-name="Line 26" x2="9.266" y2="9.266" transform="translate(35.186 35.186)" fill="none" stroke="#c2c2c2" stroke-linecap="round" stroke-linejoin="round" stroke-width="2.163"/>
        <line id="Line_27" data-name="Line 27" x2="13.103" transform="translate(38.975 26.039)" fill="none" stroke="#c2c2c2" stroke-linecap="round" stroke-linejoin="round" stroke-width="2.163"/>
        <line id="Line_28" data-name="Line 28" y1="9.266" x2="9.266" transform="translate(35.186 7.627)" fill="none" stroke="#c2c2c2" stroke-linecap="round" stroke-linejoin="round" stroke-width="2.163"/>
      </g>
      <g id="Group_772" data-name="Group 772" transform="translate(991.204 358.584)">
        <line id="Line_29" data-name="Line 29" y1="13.103" transform="translate(26.039)" fill="none" stroke="#c2c2c2" stroke-linecap="round" stroke-linejoin="round" stroke-width="2.163"/>
        <line id="Line_30" data-name="Line 30" x1="9.266" y1="9.266" transform="translate(7.627 7.627)" fill="none" stroke="#c2c2c2" stroke-linecap="round" stroke-linejoin="round" stroke-width="2.163"/>
        <line id="Line_31" data-name="Line 31" x1="13.103" transform="translate(0 26.039)" fill="none" stroke="#c2c2c2" stroke-linecap="round" stroke-linejoin="round" stroke-width="2.163"/>
        <line id="Line_32" data-name="Line 32" x1="9.266" y2="9.266" transform="translate(7.627 35.186)" fill="none" stroke="#c2c2c2" stroke-linecap="round" stroke-linejoin="round" stroke-width="2.163"/>
        <line id="Line_33" data-name="Line 33" y2="13.103" transform="translate(26.039 38.975)" fill="none" stroke="#c2c2c2" stroke-linecap="round" stroke-linejoin="round" stroke-width="2.163"/>
        <line id="Line_34" data-name="Line 34" x2="9.266" y2="9.266" transform="translate(35.186 35.186)" fill="none" stroke="#c2c2c2" stroke-linecap="round" stroke-linejoin="round" stroke-width="2.163"/>
        <line id="Line_35" data-name="Line 35" x2="13.103" transform="translate(38.975 26.039)" fill="none" stroke="#c2c2c2" stroke-linecap="round" stroke-linejoin="round" stroke-width="2.163"/>
        <line id="Line_36" data-name="Line 36" y1="9.266" x2="9.266" transform="translate(35.186 7.627)" fill="none" stroke="#c2c2c2" stroke-linecap="round" stroke-linejoin="round" stroke-width="2.163"/>
      </g>
      <rect id="Rectangle_2302" data-name="Rectangle 2302" width="449.573" height="70.776" transform="translate(727.707 735.669)" fill="none" stroke="#c2c2c2" stroke-linecap="round" stroke-linejoin="round" stroke-width="2.419"/>
      <path id="Path_2639" data-name="Path 2639" d="M-544.542,487.512v-56.7h294.766V556.8" transform="translate(1307.285 -5.888)" fill="none" stroke="#c2c2c2" stroke-linecap="round" stroke-linejoin="round" stroke-width="2.163"/>
      <path id="Path_2640" data-name="Path 2640" d="M-428.314,406.271v70.992h195.467v32.3" transform="translate(1381.928 -21.647)" fill="none" stroke="#c2c2c2" stroke-linecap="round" stroke-linejoin="round" stroke-width="2.163"/>
      <circle id="Ellipse_127" data-name="Ellipse 127" cx="7.034" cy="7.034" r="7.034" transform="translate(755.709 481.624)" fill="none" stroke="#c2c2c2" stroke-linecap="round" stroke-linejoin="round" stroke-width="2.163"/>
      <circle id="Ellipse_128" data-name="Ellipse 128" cx="7.034" cy="7.034" r="7.034" transform="translate(946.58 370.556)" fill="none" stroke="#c2c2c2" stroke-linecap="round" stroke-linejoin="round" stroke-width="2.163"/>
      <circle id="Ellipse_129" data-name="Ellipse 129" cx="7.034" cy="7.034" r="7.034" transform="translate(1142.048 488.658)" fill="none" stroke="#c2c2c2" stroke-linecap="round" stroke-linejoin="round" stroke-width="2.163"/>
      <circle id="Ellipse_130" data-name="Ellipse 130" cx="7.034" cy="7.034" r="7.034" transform="translate(1050.474 552.079)" fill="none" stroke="#c2c2c2" stroke-linecap="round" stroke-linejoin="round" stroke-width="2.163"/>
      <g id="Group_773" data-name="Group 773" transform="translate(700.261 699.982)">
        <line id="Line_37" data-name="Line 37" x1="16.643" y2="16.643" fill="none" stroke="#c2c2c2" stroke-linecap="round" stroke-linejoin="round" stroke-width="2.163"/>
        <line id="Line_38" data-name="Line 38" x2="16.643" y2="16.643" fill="none" stroke="#c2c2c2" stroke-linecap="round" stroke-linejoin="round" stroke-width="2.163"/>
      </g>
      <g id="Group_774" data-name="Group 774" transform="translate(708.582 458.309)">
        <line id="Line_39" data-name="Line 39" x1="16.643" y2="16.643" fill="none" stroke="#c2c2c2" stroke-linecap="round" stroke-linejoin="round" stroke-width="2.163"/>
        <line id="Line_40" data-name="Line 40" x2="16.643" y2="16.643" fill="none" stroke="#c2c2c2" stroke-linecap="round" stroke-linejoin="round" stroke-width="2.163"/>
      </g>
      <g id="Group_775" data-name="Group 775" transform="translate(1248.386 646.96)">
        <line id="Line_41" data-name="Line 41" x1="16.643" y2="16.643" fill="none" stroke="#c2c2c2" stroke-linecap="round" stroke-linejoin="round" stroke-width="2.163"/>
        <line id="Line_42" data-name="Line 42" x2="16.643" y2="16.643" fill="none" stroke="#c2c2c2" stroke-linecap="round" stroke-linejoin="round" stroke-width="2.163"/>
      </g>
      <path id="Path_2641" data-name="Path 2641" d="M-490.119,399.126a21.616,21.616,0,0,0-13.937,5.073,29.156,29.156,0,0,0-27.66-19.969,29.146,29.146,0,0,0-28.717,24.257,17.349,17.349,0,0,0-4.784-.682,17.373,17.373,0,0,0-17.373,17.373,17.365,17.365,0,0,0,15.112,17.21v.164h77.36a21.713,21.713,0,0,0,21.713-21.713A21.713,21.713,0,0,0-490.119,399.126Z" transform="translate(1282.851 -35.802)" fill="none" stroke="#c2c2c2" stroke-linecap="round" stroke-linejoin="round" stroke-width="2.261"/>
      <path id="Path_2642" data-name="Path 2642" d="M-274.978,464.789a15.708,15.708,0,0,1,10.126,3.685,21.182,21.182,0,0,1,20.094-14.507,21.173,21.173,0,0,1,20.863,17.623,12.639,12.639,0,0,1,3.475-.5A12.622,12.622,0,0,1-207.8,483.716a12.615,12.615,0,0,1-10.98,12.5v.12h-56.2a15.774,15.774,0,0,1-15.773-15.775A15.773,15.773,0,0,1-274.978,464.789Z" transform="translate(1470.273 8.984)" fill="none" stroke="#c2c2c2" stroke-linecap="round" stroke-linejoin="round" stroke-width="2.163"/>
      <path id="Path_2643" data-name="Path 2643" d="M-211.93,645.8a13.176,13.176,0,0,0-8.492,3.091,17.763,17.763,0,0,0-16.851-12.167,17.759,17.759,0,0,0-17.5,14.78,10.532,10.532,0,0,0-2.913-.415,10.585,10.585,0,0,0-10.586,10.584,10.579,10.579,0,0,0,9.208,10.485v.1h47.131a13.23,13.23,0,0,0,13.23-13.228A13.23,13.23,0,0,0-211.93,645.8Z" transform="translate(1484.711 126.354)" fill="none" stroke="#c2c2c2" stroke-linecap="round" stroke-linejoin="round" stroke-width="2.163"/>
      <path id="Path_2644" data-name="Path 2644" d="M-617.328,629.486a15.7,15.7,0,0,1,10.124,3.685,21.183,21.183,0,0,1,20.094-14.507,21.172,21.172,0,0,1,20.863,17.623,12.582,12.582,0,0,1,3.475-.5,12.622,12.622,0,0,1,12.622,12.622,12.614,12.614,0,0,1-10.978,12.5v.118h-56.2A15.774,15.774,0,0,1-633.1,645.26,15.774,15.774,0,0,1-617.328,629.486Z" transform="translate(1250.411 114.754)" fill="none" stroke="#c2c2c2" stroke-linecap="round" stroke-linejoin="round" stroke-width="2.163"/>
      <path id="Path_2645" data-name="Path 2645" d="M-513.059,407.864s99.257-80.923,234.114-43.642C-137.282,403.384-108.924,504.4-108.924,504.4" transform="translate(1327.504 -54.955)" fill="none" stroke="#c2c2c2" stroke-linecap="round" stroke-linejoin="round" stroke-width="2.163" stroke-dasharray="3.268 7.624"/>
      <path id="Path_2646" data-name="Path 2646" d="M-588.987,530.18c-38.479,5.968-57.822,87.633-14.54,120.052" transform="translate(1253.566 57.929)" fill="none" stroke="#c2c2c2" stroke-linecap="round" stroke-linejoin="round" stroke-width="2.017" stroke-dasharray="3.047 7.109"/>
      <path id="Path_2647" data-name="Path 2647" d="M-309.287,678.119s65.915,28.814,94.806-11.387" transform="translate(1458.369 145.624)" fill="none" stroke="#c2c2c2" stroke-linecap="round" stroke-linejoin="round" stroke-width="2.163" stroke-dasharray="3.268 7.624"/>
      <line id="Line_43" data-name="Line 43" y1="41.623" transform="translate(835.501 454.068)" fill="none" stroke="#c2c2c2" stroke-linecap="round" stroke-linejoin="round" stroke-width="2.163"/>
      <line id="Line_44" data-name="Line 44" y1="20.741" transform="translate(825.454 474.951)" fill="none" stroke="#c2c2c2" stroke-linecap="round" stroke-linejoin="round" stroke-width="2.163"/>
      <line id="Line_45" data-name="Line 45" y1="30.441" transform="translate(988.485 474.88)" fill="none" stroke="#c2c2c2" stroke-linecap="round" stroke-linejoin="round" stroke-width="2.163"/>
      <line id="Line_46" data-name="Line 46" y1="12.625" transform="translate(977.07 490.101)" fill="none" stroke="#c2c2c2" stroke-linecap="round" stroke-linejoin="round" stroke-width="2.163"/>
      <line id="Line_47" data-name="Line 47" y1="21.102" transform="translate(966.945 481.624)" fill="none" stroke="#c2c2c2" stroke-linecap="round" stroke-linejoin="round" stroke-width="2.163"/>
      <line id="Line_48" data-name="Line 48" y1="20.812" transform="translate(845.158 474.88)" fill="none" stroke="#c2c2c2" stroke-linecap="round" stroke-linejoin="round" stroke-width="2.163"/>
      <line id="Line_49" data-name="Line 49" y1="9.31" transform="translate(1121.052 492.175)" fill="none" stroke="#c2c2c2" stroke-linecap="round" stroke-linejoin="round" stroke-width="2.163"/>
      <line id="Line_50" data-name="Line 50" y1="22.679" transform="translate(1111.004 478.806)" fill="none" stroke="#c2c2c2" stroke-linecap="round" stroke-linejoin="round" stroke-width="2.163"/>
      <line id="Line_51" data-name="Line 51" y1="16.199" transform="translate(1130.709 485.286)" fill="none" stroke="#c2c2c2" stroke-linecap="round" stroke-linejoin="round" stroke-width="2.163"/>
    </g>
  </g>
</svg>
