<svg xmlns="http://www.w3.org/2000/svg" width="726.307" height="559.789" viewBox="0 0 726.307 559.789"><defs><style>.a{fill:#e4801d;}.b,.c,.e,.g,.h,.i{fill:none;}.b,.e,.g,.h,.i{stroke:#c2c2c2;stroke-linecap:round;stroke-linejoin:round;}.b,.h{stroke-width:2.163px;}.c{stroke:#fff;stroke-miterlimit:10;stroke-width:3.268px;}.d,.f{fill:#fff;}.d{font-size:60px;font-family:OpenSans-Extrabold, Open Sans;font-weight:800;}.e{stroke-width:2.419px;}.f{font-size:23px;font-family:Roboto-Regular, Roboto;}.g{stroke-width:2.261px;}.h{stroke-dasharray:3.268 7.624;}.i{stroke-width:2.017px;stroke-dasharray:3.047 7.109;}</style></defs><g transform="translate(-822.847 2415.789)"><g transform="translate(939.912 -2203.295)"><path class="a" d="M-422.609,642.442h-21.533v37.85H-496.3v-37.85h-77.974V603.656l81.317-118.9h48.818V602.986h21.533ZM-496.3,602.986V580.25q0-6.419.468-17.32t.736-11.435h-1.471a141.341,141.341,0,0,1-10.3,19.26l-21.667,32.232Z" transform="translate(574.277 -481.947)"/><path class="a" d="M-332.3,583.891q0,51.895-17.386,76.034t-53.231,24.14q-35.041,0-52.828-25.211t-17.788-74.964q0-52.161,17.386-76.5t53.231-24.341q34.908,0,52.763,25.346T-332.3,583.891Zm-88.671,0q0,33.171,4.147,45.608t13.908,12.438q9.9,0,13.977-12.84t4.078-45.205q0-32.5-4.145-45.542t-13.91-13.039q-9.762,0-13.908,12.571T-420.971,583.891Z" transform="translate(638.976 -483.046)"/><path class="a" d="M-227.15,642.442h-21.533v37.85h-52.16v-37.85h-77.974V603.656l81.316-118.9h48.818V602.986h21.533Zm-73.693-39.456V580.25q0-6.419.468-17.32t.734-11.435h-1.47a141.51,141.51,0,0,1-10.3,19.26l-21.667,32.232Z" transform="translate(699.804 -481.947)"/></g><g transform="translate(823.928 -2200.486)"><line class="b" x2="79.05" transform="translate(37.613 43.387)"/><line class="b" x2="16.874" transform="translate(135.638 43.387)"/><line class="b" x2="141.518" transform="translate(23.297 21.137)"/><line class="b" x1="11.648" transform="translate(0 21.137)"/><line class="b" x2="46.984" transform="translate(23.297)"/><line class="b" x2="98.673" transform="translate(82.86)"/></g><g transform="translate(1420.317 -2023.969)"><line class="b" x2="84.593" transform="translate(0 43.387)"/><line class="b" x2="12.236" transform="translate(98.352 43.387)"/><line class="b" x2="110.862" transform="translate(16.893 21.137)"/><line class="b" x1="8.446" transform="translate(0 21.137)"/><line class="b" x2="50.961"/><line class="b" x2="38.27" transform="translate(60.082)"/></g><g transform="translate(950.037 -2204.042)"><path class="c" d="M-416.446,641.987h-21.533v37.851h-52.16V641.987h-77.974V603.2l81.317-118.9h48.816V602.531h21.533Zm-73.693-39.456V579.795q0-6.419.468-17.32t.736-11.435h-1.473a141.224,141.224,0,0,1-10.3,19.26l-21.667,32.232Z" transform="translate(568.112 -481.492)"/><path class="c" d="M-326.135,583.436q0,51.894-17.388,76.034t-53.229,24.141q-35.043,0-52.83-25.211t-17.787-74.964q0-52.161,17.386-76.5t53.231-24.341q34.908,0,52.761,25.346T-326.135,583.436Zm-88.673,0q0,33.171,4.147,45.607t13.91,12.438q9.9,0,13.975-12.84t4.079-45.205q0-32.5-4.145-45.542t-13.91-13.039q-9.765,0-13.91,12.571T-414.807,583.436Z" transform="translate(632.811 -482.591)"/><path class="c" d="M-220.986,641.987h-21.531v37.851h-52.162V641.987h-77.974V603.2l81.317-118.9h48.818V602.531h21.531Zm-73.693-39.456V579.795q0-6.419.468-17.32t.736-11.435h-1.47a141.237,141.237,0,0,1-10.3,19.26l-21.666,32.232Z" transform="translate(693.638 -481.492)"/></g><text class="d" transform="translate(1082.635 -1920.711)"><tspan x="0" y="0">ERROR</tspan></text><g transform="translate(1421.211 -2180.049)"><line class="b" y1="18.128" transform="translate(36.024)"/><line class="b" x1="12.818" y1="12.818" transform="translate(10.551 10.551)"/><line class="b" x1="18.128" transform="translate(0 36.024)"/><line class="b" x1="12.818" y2="12.818" transform="translate(10.551 48.679)"/><line class="b" y2="18.128" transform="translate(36.024 53.92)"/><line class="b" x2="12.818" y2="12.818" transform="translate(48.679 48.679)"/><line class="b" x2="18.128" transform="translate(53.92 36.024)"/><line class="b" y1="12.818" x2="12.818" transform="translate(48.679 10.551)"/></g><g transform="translate(862.616 -2084.758)"><line class="b" y1="13.103" transform="translate(26.039)"/><line class="b" x1="9.266" y1="9.266" transform="translate(7.627 7.627)"/><line class="b" x1="13.103" transform="translate(0 26.039)"/><line class="b" x1="9.266" y2="9.266" transform="translate(7.627 35.186)"/><line class="b" y2="13.103" transform="translate(26.039 38.975)"/><line class="b" x2="9.266" y2="9.266" transform="translate(35.186 35.186)"/><line class="b" x2="13.103" transform="translate(38.975 26.039)"/><line class="b" y1="9.266" x2="9.266" transform="translate(35.186 7.627)"/></g><g transform="translate(1217.204 -2355.416)"><line class="b" y1="13.103" transform="translate(26.039)"/><line class="b" x1="9.266" y1="9.266" transform="translate(7.627 7.627)"/><line class="b" x1="13.103" transform="translate(0 26.039)"/><line class="b" x1="9.266" y2="9.266" transform="translate(7.627 35.186)"/><line class="b" y2="13.103" transform="translate(26.039 38.975)"/><line class="b" x2="9.266" y2="9.266" transform="translate(35.186 35.186)"/><line class="b" x2="13.103" transform="translate(38.975 26.039)"/><line class="b" y1="9.266" x2="9.266" transform="translate(35.186 7.627)"/></g><rect class="e" width="449.573" height="70.776" transform="translate(953.707 -1978.331)"/><text class="f" transform="translate(1180 -1862)"><tspan x="-179.014" y="0">The requested page does not exist.</tspan></text><path class="b" d="M-544.542,487.512v-56.7h294.766V556.8" transform="translate(1533.285 -2719.888)"/><path class="b" d="M-428.314,406.271v70.992h195.467v32.3" transform="translate(1607.928 -2735.647)"/><circle class="b" cx="7.034" cy="7.034" r="7.034" transform="translate(981.709 -2232.376)"/><circle class="b" cx="7.034" cy="7.034" r="7.034" transform="translate(1172.58 -2343.444)"/><circle class="b" cx="7.034" cy="7.034" r="7.034" transform="translate(1368.048 -2225.342)"/><circle class="b" cx="7.034" cy="7.034" r="7.034" transform="translate(1276.474 -2161.921)"/><g transform="translate(926.261 -2014.018)"><line class="b" x1="16.643" y2="16.643"/><line class="b" x2="16.643" y2="16.643"/></g><g transform="translate(934.582 -2255.691)"><line class="b" x1="16.643" y2="16.643"/><line class="b" x2="16.643" y2="16.643"/></g><g transform="translate(1474.386 -2067.04)"><line class="b" x1="16.643" y2="16.643"/><line class="b" x2="16.643" y2="16.643"/></g><path class="g" d="M-490.119,399.126a21.616,21.616,0,0,0-13.937,5.073,29.156,29.156,0,0,0-27.66-19.969,29.146,29.146,0,0,0-28.717,24.257,17.349,17.349,0,0,0-4.784-.682,17.373,17.373,0,0,0-17.373,17.373,17.365,17.365,0,0,0,15.112,17.21v.164h77.36a21.713,21.713,0,0,0,21.713-21.713A21.713,21.713,0,0,0-490.119,399.126Z" transform="translate(1508.851 -2749.802)"/><path class="b" d="M-274.978,464.789a15.708,15.708,0,0,1,10.126,3.685,21.182,21.182,0,0,1,20.094-14.507,21.173,21.173,0,0,1,20.863,17.623,12.639,12.639,0,0,1,3.475-.5A12.622,12.622,0,0,1-207.8,483.716a12.615,12.615,0,0,1-10.98,12.5v.12h-56.2a15.774,15.774,0,0,1-15.773-15.775A15.773,15.773,0,0,1-274.978,464.789Z" transform="translate(1696.273 -2705.016)"/><path class="b" d="M-211.93,645.8a13.176,13.176,0,0,0-8.492,3.091,17.763,17.763,0,0,0-16.851-12.167,17.759,17.759,0,0,0-17.5,14.78,10.532,10.532,0,0,0-2.913-.415,10.585,10.585,0,0,0-10.586,10.584,10.579,10.579,0,0,0,9.208,10.485v.1h47.131a13.23,13.23,0,0,0,13.23-13.228A13.23,13.23,0,0,0-211.93,645.8Z" transform="translate(1710.711 -2587.646)"/><path class="b" d="M-617.328,629.486a15.7,15.7,0,0,1,10.124,3.685,21.183,21.183,0,0,1,20.094-14.507,21.172,21.172,0,0,1,20.863,17.623,12.582,12.582,0,0,1,3.475-.5,12.622,12.622,0,0,1,12.622,12.622,12.614,12.614,0,0,1-10.978,12.5v.118h-56.2A15.774,15.774,0,0,1-633.1,645.26,15.774,15.774,0,0,1-617.328,629.486Z" transform="translate(1476.411 -2599.246)"/><path class="h" d="M-513.059,407.864s99.257-80.923,234.114-43.642C-137.282,403.384-108.924,504.4-108.924,504.4" transform="translate(1553.504 -2768.955)"/><path class="i" d="M-588.987,530.18c-38.479,5.968-57.822,87.633-14.54,120.052" transform="translate(1479.566 -2656.071)"/><path class="h" d="M-309.287,678.119s65.915,28.814,94.806-11.387" transform="translate(1684.369 -2568.376)"/><line class="b" y1="41.623" transform="translate(1061.501 -2259.932)"/><line class="b" y1="20.741" transform="translate(1051.454 -2239.049)"/><line class="b" y1="30.441" transform="translate(1214.485 -2239.12)"/><line class="b" y1="12.625" transform="translate(1203.07 -2223.899)"/><line class="b" y1="21.102" transform="translate(1192.945 -2232.376)"/><line class="b" y1="20.812" transform="translate(1071.158 -2239.12)"/><line class="b" y1="9.31" transform="translate(1347.052 -2221.825)"/><line class="b" y1="22.679" transform="translate(1337.004 -2235.194)"/><line class="b" y1="16.199" transform="translate(1356.709 -2228.714)"/></g></svg>