<svg xmlns="http://www.w3.org/2000/svg" width="204.757" height="37.074" viewBox="0 0 204.757 37.074">
  <g id="Group_32" data-name="Group 32" transform="translate(316.19 -535.579)">
    <path id="Path_2123" data-name="Path 2123" d="M114.441,328.456c-3.125-1.81-6.443-3.36-9.328-5.5-3.6-2.666-4.259-7.8-1.968-11.826,1.668-2.929,3.377-5.836,5.079-8.746a4.107,4.107,0,0,1,5.984-1.711c.526.281,1.043.581,1.71.956.919.539,1.7.984,2.462,1.451a4.082,4.082,0,0,1,1.48,5.75c-2.14,3.69-4.272,7.385-6.449,11.175a6.324,6.324,0,0,0-.669,4.665A26.439,26.439,0,0,0,114.441,328.456Z" transform="translate(-418 241.041)" fill="#4386f4"/>
    <path id="Path_2124" data-name="Path 2124" d="M147.219,304.014q3.2-5.539,6.407-11.078a4.082,4.082,0,0,0-1.48-5.749c-.765-.466-1.543-.912-2.374-1.43a28.845,28.845,0,0,1,1.435-2.587,9.379,9.379,0,0,1,12.608-3.331c2.9,1.61,5.744,3.314,8.557,5.033-3.9-.458-6.4.685-7.879,3.662-2.884,4.924-5.69,9.8-8.528,14.659a4.716,4.716,0,0,1-6.707,1.861C148.585,304.7,147.9,304.359,147.219,304.014Z" transform="translate(-451.765 256.939)" fill="#35a853"/>
    <path id="Path_2125" data-name="Path 2125" d="M144.547,332.917a14.643,14.643,0,0,1,2.081.941A4.716,4.716,0,0,0,153.335,332c2.838-4.858,5.643-9.735,8.607-14.618.8.387,1.45.795,2.11,1.186a4.033,4.033,0,0,1,1.653,5.884c-2.053,3.688-4.184,7.334-6.281,11-.779,1.324-1.551,2.652-2.337,3.972a7.526,7.526,0,0,1-11.432,1.984,21.736,21.736,0,0,1-1.777-3.82A6.324,6.324,0,0,1,144.547,332.917Z" transform="translate(-449.134 228.133)" fill="#f9bc05"/>
    <path id="Path_2126" data-name="Path 2126" d="M343.161,320.756c-4.058,5.61-12.521,5.938-17.6,1.452a11.971,11.971,0,0,1-.742-17.467c4.73-4.88,12.732-5.1,17.074-.519l-2.329,2.294a8.907,8.907,0,0,0-6.13-2.217,8.677,8.677,0,0,0-8.109,6.488,8.778,8.778,0,0,0,14.152,9.057,6.491,6.491,0,0,0,2.121-4.5h-7.911v-3.251h11.257A12.125,12.125,0,0,1,343.161,320.756Z" transform="translate(-581.274 240.367)" fill="#626469"/>
    <path id="Path_2127" data-name="Path 2127" d="M205.4,324.575c2.014-3.693,4.144-7.339,6.2-11.027a4.033,4.033,0,0,0-1.653-5.884c-.66-.391-1.31-.8-2.045-1.24,1.338-2.964,3.834-4.107,7.813-3.582,5.14,2.579,6.425,6.865,3.638,11.711q-2.647,4.6-5.311,9.2c-1.793,3.1-3.772,3.618-6.9,1.826C206.586,325.256,206.036,324.928,205.4,324.575Z" transform="translate(-495.027 239.035)" fill="#e94336"/>
    <path id="Path_2128" data-name="Path 2128" d="M551.432,344.04c-.553-4.952,2.856-9.169,7.391-9.037a18.973,18.973,0,0,1,4.231,1.119l.082-.657h3.253c0,4.806.013,9.535-.012,14.264a11.838,11.838,0,0,1-.272,2.409,6.646,6.646,0,0,1-6.261,5.457c-3.692.26-6.609-1.447-7.781-4.618l2.771-1.183c2.108,2.645,3.649,3.272,5.847,2.414,1.769-.69,2.578-2.49,2.3-5.263a6.045,6.045,0,0,1-6.9,1.085,7.671,7.671,0,0,1-4.64-5.99m3.466-2.113a9.8,9.8,0,0,0,.01,1.655,4.328,4.328,0,0,0,3.2,3.748,3.665,3.665,0,0,0,4.114-1.318,5.02,5.02,0,0,0,.542-5.647,4,4,0,0,0-7.077-.4A9.434,9.434,0,0,0,554.9,341.928Z" transform="translate(-752.281 215.031)" fill="#616469"/>
    <path id="Path_2129" data-name="Path 2129" d="M422.853,335.37c3.242-1.151,6.178-.823,8.661,1.509a7.492,7.492,0,0,1,2.1,7.857,7.882,7.882,0,0,1-15.225-.318,7.794,7.794,0,0,1,4.462-9.048m7.325,8.932c.916-3.316-.859-6.286-3.848-6.439a4.448,4.448,0,0,0-4.554,3.677,4.792,4.792,0,0,0,2.9,5.507C426.863,347.81,428.893,346.858,430.178,344.3Z" transform="translate(-653.242 215.235)" fill="#616469"/>
    <path id="Path_2130" data-name="Path 2130" d="M494.536,350.127c-4.693.921-8.733-1.677-9.625-6.1a7.881,7.881,0,0,1,15.355-3.524c1.089,4.338-1.211,8.267-5.73,9.626m-6.157-6.561a4.494,4.494,0,0,0,4.051,3.67,4.429,4.429,0,0,0,4.122-2.522,5.093,5.093,0,0,0-.811-5.6,4.254,4.254,0,0,0-4.935-.906C488.975,339.09,488.066,341,488.379,343.566Z" transform="translate(-702.744 215.303)" fill="#616469"/>
    <path id="Path_2131" data-name="Path 2131" d="M644.81,335.182c4.263-1.047,7.508.948,9.12,5.623L643.7,345.056c.993,3.04,4.41,3.185,7.54.288l2.483,1.672a7.717,7.717,0,0,1-14.208-3.858,7.681,7.681,0,0,1,5.291-7.976m-.977,4.374-1.045,2.636.364.175,6.664-2.794C648.511,337.4,646.037,337.381,643.833,339.556Z" transform="translate(-817.807 215.098)" fill="#626469"/>
    <path id="Path_2132" data-name="Path 2132" d="M732.837,322.437c0-4.053.009-7.979.017-11.9a1.052,1.052,0,0,1,.071-.255,71.816,71.816,0,0,1,8.753.074,6.181,6.181,0,0,1,5.211,6.71,6.493,6.493,0,0,1-6.355,5.868c-1.57.053-3.144.009-4.868.009V331.6h-2.83v-9.158m7.238-2.1a10.333,10.333,0,0,0,1.384-.221,3.677,3.677,0,0,0,2.555-3.834,3.572,3.572,0,0,0-3.034-3.319c-1.723-.138-3.467-.031-5.276-.031v7.406Z" transform="translate(-887.212 233.492)" fill="#62656a"/>
    <path id="Path_2133" data-name="Path 2133" d="M800.922,339.627c-1.518-3.156-4.685-3.45-7.436-.692l-2.3-1.456c1.546-2.453,4.565-3.5,7.844-2.783a5.408,5.408,0,0,1,4.593,5.259c.169,3.222.039,6.46.039,9.745h-2.608l-.119-1.754c-.263.232-.476.4-.665.591a5.852,5.852,0,0,1-7.7.533,4.705,4.705,0,0,1,.888-8.174,9.711,9.711,0,0,1,7.484.049c0-.435,0-.827-.022-1.318m-7.42,5.417a2.732,2.732,0,0,0,2.594,2.646,4.635,4.635,0,0,0,4.62-2.774c.527-1.319.363-1.729-1.009-2.172a5.2,5.2,0,0,0-4.237.078A7.6,7.6,0,0,0,793.5,345.044Z" transform="translate(-930.155 215.421)" fill="#62656a"/>
    <path id="Path_2134" data-name="Path 2134" d="M844.564,336.365c.979-.161,1.371.248,1.69,1.055,1.221,3.093,2.53,6.151,3.908,9.468.5-1.17.929-2.143,1.33-3.129.8-1.975,1.667-3.932,2.359-5.946.4-1.166,1.018-1.65,2.223-1.459a10.475,10.475,0,0,0,1.443.01c-.928,2.152-1.778,4.131-2.635,6.107q-2.828,6.516-5.665,13.027c-.994,2.275-1.005,2.27-3.729,1.965.955-2.088,1.845-4.152,2.843-6.164a2.4,2.4,0,0,0,.016-2.277c-1.857-4.123-3.656-8.271-5.583-12.654C843.41,336.367,843.933,336.367,844.564,336.365Z" transform="translate(-968.951 214.055)" fill="#626469"/>
    <path id="Path_2135" data-name="Path 2135" d="M619.645,326.373c-.024-4.034-.056-8.068-.068-12.1-.01-3.229.006-6.458.087-9.826.1-.164.146-.205.141-.213a1.579,1.579,0,0,0-.126-.153l3.263-.315v23.129c-.928,0-1.85,0-2.9-.1A4.107,4.107,0,0,1,619.645,326.373Z" transform="translate(-802.994 238.257)" fill="#606468"/>
    <path id="Path_2136" data-name="Path 2136" d="M619.742,392.151a.713.713,0,0,1,.309.347A.713.713,0,0,1,619.742,392.151Z" transform="translate(-803.118 172.535)" fill="#52555a"/>
    <path id="Path_2137" data-name="Path 2137" d="M619.823,305.238a.154.154,0,0,1,.159.088c0,.007-.042.049-.113.1C619.811,305.4,619.8,305.35,619.823,305.238Z" transform="translate(-803.171 237.163)" fill="#52555a"/>
  </g>
</svg>
