<svg xmlns="http://www.w3.org/2000/svg" viewBox="0 0 29.99 24.5"><defs><style>.cls-1{fill:#a22a2a;}</style></defs><g id="Layer_2" data-name="Layer 2"><g id="Layer_1-2" data-name="Layer 1"><g id="alert"><g id="alert-01"><path id="Path_2755" data-name="Path 2755" class="cls-1" d="M26.92,20.39a1.62,1.62,0,0,1,.45-2.1A8.69,8.69,0,0,0,27.51,6l-.07-.08a12.63,12.63,0,0,0-15.75-1.5,9.1,9.1,0,0,0-4.32,7.1,8.78,8.78,0,0,0,3.84,8,12.29,12.29,0,0,0,10.73,2c.34-.08.65-.2,1,.15a10.58,10.58,0,0,0,4.86,2.77c.39.12.77.19,1-.22s0-.69-.22-1A9.65,9.65,0,0,1,26.92,20.39ZM18.73,4.91c.85,0,1.24.36,1.29,1.29,0,.43,0,.87,0,1.22a44.74,44.74,0,0,1-.6,5.65c-.09.44-.25.73-.75.77s-.68-.28-.81-.68a7.19,7.19,0,0,1-.28-1.73c-.1-1.48-.21-3-.31-4.46,0-.22,0-.45,0-.68a1.38,1.38,0,0,1,1.38-1.38Zm-.05,13a1.38,1.38,0,0,1-1.44-1.29,1.42,1.42,0,0,1,2.84,0,1.38,1.38,0,0,1-1.4,1.28Z"/><path id="Path_2756" data-name="Path 2756" class="cls-1" d="M5.15,15.91a4.48,4.48,0,0,0,1.1-.83.64.64,0,0,1,.88-.15l.12.12c.32.34.24.65-.09,1A6.24,6.24,0,0,1,3.3,17.87a.67.67,0,0,1-.61-1.16l1.1-1.22c.26-.29.28-.46-.11-.72A7.77,7.77,0,0,1,0,8.67a7.37,7.37,0,0,1,2.48-6,10.59,10.59,0,0,1,11-1.93c.46.19.64.57.46.94s-.59.43-1,.28A9,9,0,0,0,4.17,3.06a6.23,6.23,0,0,0,.27,10.63l.14.09C5.8,14.55,5.8,14.55,5.15,15.91Z"/></g></g></g></g></svg>