<svg xmlns="http://www.w3.org/2000/svg" viewBox="0 0 20 20"><defs><style>.cls-1{fill:none;opacity:0;}.cls-2{fill:#fff;}</style></defs><g id="Layer_2" data-name="Layer 2"><g id="Layer_1-2" data-name="Layer 1"><rect class="cls-1" width="20" height="20"/><path class="cls-2" d="M20,4a1.3,1.3,0,0,0-.09-.55,1.8,1.8,0,0,0-1.63-1.11c-.49,0-1,0-1.48,0-.22,0-.23,0-.24-.23a3,3,0,0,0-.07-.74A1.72,1.72,0,0,0,15,0h-.58l-.06,0a1.72,1.72,0,0,0-1.39,1.46,4.6,4.6,0,0,0,0,.64c0,.15-.05.22-.2.21s-.4,0-.61,0-.21,0-.21-.23a4.51,4.51,0,0,0-.07-.73A1.73,1.73,0,0,0,10.29,0H9.71L9.66,0a1.73,1.73,0,0,0-1.4,1.46,4.6,4.6,0,0,0,0,.64c0,.15,0,.22-.2.21s-.4,0-.6,0-.22,0-.22-.23a4.51,4.51,0,0,0-.07-.73A1.73,1.73,0,0,0,5.61,0H5A1.71,1.71,0,0,0,3.6,1.34a3.45,3.45,0,0,0-.07.72c0,.25,0,.26-.27.26H1.78A1.8,1.8,0,0,0,.12,3.51,2.28,2.28,0,0,0,0,4.37Q0,11.2,0,18a2.23,2.23,0,0,0,.07.81A1.71,1.71,0,0,0,1.48,20h17l0,0A1.6,1.6,0,0,0,20,18.37ZM14.13,2.23c0-.15,0-.31,0-.47a.6.6,0,0,1,.58-.59.59.59,0,0,1,.59.58c0,.17,0,.35,0,.53s0,.11-.11.1H14.7a3,3,0,0,0-.42,0C14.15,2.4,14.12,2.35,14.13,2.23Zm-4.25-1a.56.56,0,0,1,.72.44,4.85,4.85,0,0,1,0,.66c0,.1,0,.08-.11.08H10a.22.22,0,0,1-.08,0c-.16,0-.44.12-.49-.08C9.33,1.7,9.5,1.31,9.88,1.2Zm-4.67,0a.56.56,0,0,1,.72.46c0,.21,0,.43,0,.64s-.06.08-.12.08H5.34s0,0,0,0c-.17,0-.45.11-.5-.08C4.65,1.71,4.82,1.31,5.21,1.2Zm-4,3.08c0-.51.21-.73.71-.73,1.28,0,2.55,0,3.82,0,.14,0,.21,0,.19.18s0,.3,0,.45a.58.58,0,0,1-.55.55.58.58,0,0,0-.61.62.6.6,0,0,0,.69.55A1.76,1.76,0,0,0,7.1,4.29c0-.2,0-.4,0-.6s0-.14.13-.14q1.63,0,3.27,0c.08,0,.12,0,.12.11s0,.34,0,.5a.59.59,0,0,1-.56.57.58.58,0,0,0-.6.6.59.59,0,0,0,.66.57,1.75,1.75,0,0,0,1.66-1.59c0-.21,0-.42,0-.63s0-.13.13-.13c1.09,0,2.17,0,3.26,0,.1,0,.13,0,.12.13s0,.33,0,.49a.6.6,0,0,1-.56.56.58.58,0,0,0-.6.61.59.59,0,0,0,.68.56,1.76,1.76,0,0,0,1.64-1.6c0-.21,0-.42,0-.63s0-.12.12-.12h1.66a.57.57,0,0,1,.56.6c0,.36,0,.71,0,1.07,0,.55,0,1.1,0,1.64,0,.16,0,.2-.19.2H1.43c-.16,0-.21,0-.21-.19C1.23,6,1.23,5.15,1.23,4.28ZM15.28,15.4c0-.08,0-.13.11-.13h2.55L15.28,18Zm3.53,2.77a.59.59,0,0,1-.66.66H16.09l2.69-2.73s0,.11,0,.15Zm-.2-4.06H14.79a.61.61,0,0,0-.68.69c0,1.29,0,2.57,0,3.86,0,.15,0,.18-.18.18h-12a.59.59,0,0,1-.66-.67c0-3.25,0-6.51,0-9.76,0-.18.1-.16.2-.16H18.6c.18,0,.22,0,.21.22v5.45C18.82,14.08,18.77,14.11,18.61,14.11Z"/><path class="cls-2" d="M4.76,10.59H4.17a.58.58,0,0,1,0-1.16H5.35a.58.58,0,0,1,0,1.16Z"/><path class="cls-2" d="M8.25,10.59H7.68a.58.58,0,1,1,0-1.16H8.84a.57.57,0,0,1,.59.58.59.59,0,0,1-.6.59Z"/><path class="cls-2" d="M11.76,10.59H11.2a.6.6,0,0,1-.6-.6.58.58,0,0,1,.59-.57h1.17a.57.57,0,0,1,.58.58.58.58,0,0,1-.58.58Z"/><path class="cls-2" d="M15.28,10.59H14.7a.58.58,0,1,1,0-1.16h1.14a.58.58,0,0,1,.6.58.59.59,0,0,1-.6.59Z"/><path class="cls-2" d="M4.75,11.76h.59a.59.59,0,1,1,0,1.17H4.17a.59.59,0,0,1,0-1.17Z"/><path class="cls-2" d="M8.26,12.93H7.68a.59.59,0,0,1-.58-.58.58.58,0,0,1,.57-.59H8.86a.57.57,0,0,1,.57.59.58.58,0,0,1-.56.58Z"/><path class="cls-2" d="M11.76,12.93H11.2a.6.6,0,0,1-.6-.6.59.59,0,0,1,.59-.57h1.17a.58.58,0,0,1,.58.58.59.59,0,0,1-.58.59Z"/><path class="cls-2" d="M15.28,11.76h.59a.58.58,0,0,1,.58.58.59.59,0,0,1-.57.59H14.69a.59.59,0,0,1,0-1.17Z"/><path class="cls-2" d="M4.75,15.27H4.17a.58.58,0,0,1-.58-.58.59.59,0,0,1,.58-.59H5.35a.59.59,0,0,1,0,1.17Z"/><path class="cls-2" d="M8.28,15.27H7.69a.57.57,0,0,1-.59-.59.59.59,0,0,1,.6-.58H8.83a.59.59,0,0,1,.6.58.57.57,0,0,1-.61.59Z"/><path class="cls-2" d="M11.79,14.1h.55a.59.59,0,0,1,.6.58.57.57,0,0,1-.59.59H11.2a.59.59,0,0,1-.6-.59.61.61,0,0,1,.61-.58Z"/><path class="cls-2" d="M4.75,17.62H4.17A.59.59,0,0,1,3.59,17a.57.57,0,0,1,.58-.58H5.34a.59.59,0,0,1,.59.57.6.6,0,0,1-.6.6Z"/><path class="cls-2" d="M8.26,17.62H7.68A.59.59,0,0,1,7.1,17a.57.57,0,0,1,.58-.58H8.86a.57.57,0,0,1,.57.59.59.59,0,0,1-.57.58Z"/><path class="cls-2" d="M11.77,16.45h.58a.57.57,0,0,1,.59.57.59.59,0,0,1-.59.6H11.19A.6.6,0,0,1,10.6,17a.59.59,0,0,1,.59-.58Z"/></g></g></svg>