<svg xmlns="http://www.w3.org/2000/svg" viewBox="0 0 44.91 75.8"><defs><style>.cls-1{fill:#393e46;}</style></defs><g id="Layer_2" data-name="Layer 2"><g id="Layer_1-2" data-name="Layer 1"><g id="Layer_2-2" data-name="Layer 2"><g id="Layer_1-3" data-name="Layer 1"><path id="Path_2971" data-name="Path 2971" class="cls-1" d="M22.5,62.63h8.74a2.29,2.29,0,0,1,.28,4.57H13.7a2.29,2.29,0,0,1-1-4.41,2.56,2.56,0,0,1,1-.16Z"/><path id="Path_2972" data-name="Path 2972" class="cls-1" d="M22.49,55.62H31.4a2.25,2.25,0,0,1,2.24,2,2.29,2.29,0,0,1-1.51,2.46,2.56,2.56,0,0,1-.78.14H13.62a2.31,2.31,0,0,1-2.21-1.56,2.25,2.25,0,0,1,.75-2.52,2.15,2.15,0,0,1,1.42-.49h8.91Z"/><path id="Path_2973" data-name="Path 2973" class="cls-1" d="M22.49,69.64c2.19,0,4.39,0,6.58,0,.46,0,.54.12.48.55A6.24,6.24,0,0,1,25,75.36a7.65,7.65,0,0,1-8.39-2.24,5.76,5.76,0,0,1-1.25-3c0-.34,0-.49.42-.48C18,69.65,20.26,69.64,22.49,69.64Z"/><path id="Path_2974" data-name="Path 2974" class="cls-1" d="M44.55,18.27A22.45,22.45,0,0,0,21.3,0,21.7,21.7,0,0,0,5.14,8.2,21.65,21.65,0,0,0,.45,26.59,26.18,26.18,0,0,0,3.93,35c1.46,2.5,3.09,4.89,4.48,7.42,1.74,3.19,3.07,6.5,2.85,10.23,0,.45.15.5.53.5H33.18c.38,0,.51-.07.5-.48A15.54,15.54,0,0,1,34,48.63a27.19,27.19,0,0,1,3-7.12c1.5-2.63,3.22-5.13,4.69-7.78A22.52,22.52,0,0,0,44.55,18.27ZM38.69,31.13c-1.32,2.54-2.93,4.91-4.4,7.36A34.62,34.62,0,0,0,30.38,47,14.78,14.78,0,0,0,30,48.88c0,.31-.16.36-.45.36-2.36,0-4.73,0-7.1,0h-7c-.32,0-.48,0-.54-.42a28,28,0,0,0-3.73-9.39C9.72,36.8,8,34.32,6.54,31.65a20.07,20.07,0,0,1-2.49-7.56,17.58,17.58,0,0,1,1.76-9.7A18,18,0,0,1,19.67,4.15a18.35,18.35,0,0,1,19,27Z"/></g></g></g></g></svg>