<svg xmlns="http://www.w3.org/2000/svg" viewBox="0 0 40 40"><defs><style>.cls-1{fill:#e89922;}.cls-2{fill:#fff;}</style></defs><g id="Layer_2" data-name="Layer 2"><g id="Layer_1-2" data-name="Layer 1"><path id="Path_2801" data-name="Path 2801" class="cls-1" d="M19.27,0h1.41l.61.09c.77.09,1.54.12,2.29.27A20,20,0,0,1,39.67,23.61c0,.13-.05.27-.08.41a19.1,19.1,0,0,1-6.7,11.25,19.55,19.55,0,0,1-15.42,4.55,19,19,0,0,1-9.71-4A19.63,19.63,0,0,1,.16,22.23,12.85,12.85,0,0,0,0,20.84V19.23a5.07,5.07,0,0,1,.09-.54c.12-.92.19-1.86.38-2.77A19.64,19.64,0,0,1,7.94,4.11,19.3,19.3,0,0,1,17.82.17Z"/><path id="Path_2805" data-name="Path 2805" class="cls-2" d="M17.07,22.8h5.85c-.21-.53-.4-1.06-.56-1.61a5.45,5.45,0,1,1,6.48,4.18l-.38.07a8.34,8.34,0,0,1-1,0H12.64A5.53,5.53,0,0,1,7,21.35a5.46,5.46,0,1,1,10.59-2.69,5,5,0,0,1,.14.86,5.37,5.37,0,0,1-.53,2.87Zm-2-3a2.77,2.77,0,1,0-2.76,2.78A2.76,2.76,0,0,0,15.1,19.8ZM30.46,20a2.77,2.77,0,1,0-.81,2A2.77,2.77,0,0,0,30.46,20Z"/></g></g></svg>