<svg xmlns="http://www.w3.org/2000/svg" viewBox="0 0 40 40"><defs><style>.cls-1{fill:#e05252;}.cls-2{fill:#fff;}</style></defs><g id="Layer_2" data-name="Layer 2"><g id="Layer_1-2" data-name="Layer 1"><path id="Path_2801" data-name="Path 2801" class="cls-1" d="M19.27,0h1.41l.61.09c.77.09,1.54.12,2.29.27A20,20,0,0,1,39.67,23.61c0,.13-.05.27-.08.41a19.1,19.1,0,0,1-6.7,11.25,19.55,19.55,0,0,1-15.42,4.55,19,19,0,0,1-9.71-4A19.63,19.63,0,0,1,.16,22.23,12.85,12.85,0,0,0,0,20.84V19.23a5.07,5.07,0,0,1,.09-.54c.12-.92.19-1.86.38-2.77A19.64,19.64,0,0,1,7.94,4.11,19.3,19.3,0,0,1,17.82.17Z"/><path id="Path_2802" data-name="Path 2802" class="cls-2" d="M27.23,32.76a12.26,12.26,0,0,1-5.31-1.51,31.88,31.88,0,0,1-9.45-7.71A24.1,24.1,0,0,1,8,16.32a9.68,9.68,0,0,1-.72-3.18A4.63,4.63,0,0,1,8.52,9.38,5,5,0,0,1,10,8.47c.84-.4,1.7-.73,2.56-1.06a1.75,1.75,0,0,1,2.23.77c.85,1.44,1.68,2.89,2.51,4.35A1.78,1.78,0,0,1,16.64,15l-.07,0a2.94,2.94,0,0,0-1.41,1.65,2.69,2.69,0,0,0,.43,2.55,27.09,27.09,0,0,0,5.19,5.18,2.77,2.77,0,0,0,3.88-.49c.08-.11.16-.23.23-.35a1.88,1.88,0,0,1,2.63-.73c1.42.79,2.82,1.61,4.23,2.43a1.73,1.73,0,0,1,.82,2.3c-.38,1-.79,1.94-1.23,2.9A4,4,0,0,1,28,32.71Z"/><path id="Path_2803" data-name="Path 2803" class="cls-2" d="M25.78,12.66l2-2a1.12,1.12,0,0,1,1.57-.16,1.11,1.11,0,0,1,.16,1.56.57.57,0,0,1-.11.11c-.52.56-1.08,1.09-1.63,1.63a2.63,2.63,0,0,1-.37.29l.59.6L29.28,16a1.15,1.15,0,0,1,.23,1.61.52.52,0,0,1-.1.11,1.11,1.11,0,0,1-1.58,0l-.11-.12L25.8,15.65c-.29.33-.54.65-.83,1s-.67.69-1,1a1.11,1.11,0,1,1-1.69-1.44L22.4,16l1.92-1.92-1.4-1.38c-.2-.2-.41-.4-.6-.61a1.11,1.11,0,0,1,1.45-1.68l.12.12c.57.53,1.11,1.09,1.66,1.65A2.64,2.64,0,0,1,25.78,12.66Z"/></g></g></svg>