<svg xmlns="http://www.w3.org/2000/svg" viewBox="0 0 40 40.01"><defs><style>.cls-1{fill:#a1c749;}.cls-2{fill:#fff;}.cls-3{fill:#a22a2a;}</style></defs><g id="Layer_2" data-name="Layer 2"><g id="Layer_1-2" data-name="Layer 1"><path id="Path_2799" data-name="Path 2799" class="cls-1" d="M40,18.84v2.34c-.06.51-.11,1-.19,1.53a19.75,19.75,0,0,1-6.26,12,19.3,19.3,0,0,1-10.12,5c-.74.13-1.48.21-2.23.31H18.86c-.74-.1-1.49-.17-2.23-.31a19.18,19.18,0,0,1-12.8-8A19.4,19.4,0,0,1,1.41,12.88a19.92,19.92,0,0,1,38.28,3.73C39.83,17.34,39.9,18.09,40,18.84Z"/><path id="Path_2800" data-name="Path 2800" class="cls-2" d="M24.36,31.45a10.27,10.27,0,0,1-3.9-1.18A23.41,23.41,0,0,1,9.82,20a10.56,10.56,0,0,1-1.25-3.43,5.22,5.22,0,0,1,1.5-4.5c.36-.39.74-.77,1.13-1.14a.86.86,0,0,1,1.21-.16.75.75,0,0,1,.15.16l3.56,3.55a.89.89,0,0,1,.17,1.24.85.85,0,0,1-.17.16l-2,2A1.83,1.83,0,0,0,14,20.41l0,.06a26.71,26.71,0,0,0,5.83,5.7A1.81,1.81,0,0,0,22.37,26c.62-.62,1.23-1.25,1.84-1.87s1-.58,1.56,0l3.42,3.42a.91.91,0,0,1,.24,1.26.78.78,0,0,1-.24.24,8.49,8.49,0,0,1-2.38,1.92,5.62,5.62,0,0,1-2.45.51Z"/><path id="ic_error_24px" data-name="ic error 24px" class="cls-3" d="M26,8a6,6,0,1,0,6,6A6,6,0,0,0,26,8Z"/></g></g></svg>