<svg xmlns="http://www.w3.org/2000/svg" xmlns:xlink="http://www.w3.org/1999/xlink" viewBox="0 0 99.58 99.58"><defs><style>.cls-1{fill:url(#linear-gradient);}.cls-2{fill:#f2f2f2;}</style><linearGradient id="linear-gradient" x1="-2445.66" y1="435.8" x2="-2445.69" y2="435.82" gradientTransform="matrix(99.58, 0, 0, -99.58, 243170.22, 43037.87)" gradientUnits="userSpaceOnUse"><stop offset="0" stop-color="#5a3f92"/><stop offset="0.39" stop-color="#c21976"/><stop offset="0.7" stop-color="#c84c4d"/><stop offset="1" stop-color="#e09a3b"/></linearGradient></defs><g id="Layer_2" data-name="Layer 2"><g id="Layer_1-2" data-name="Layer 1"><g id="Group_189" data-name="Group 189"><circle id="Ellipse_86" data-name="Ellipse 86" class="cls-1" cx="49.79" cy="49.79" r="49.79"/><path id="Path_2054" data-name="Path 2054" class="cls-2" d="M63.21,16.6H36.37A19.8,19.8,0,0,0,16.59,36.37V63.21A19.81,19.81,0,0,0,36.37,83H63.2A19.8,19.8,0,0,0,83,63.21V36.37A19.79,19.79,0,0,0,63.21,16.6Zm13.1,46.61a13.11,13.11,0,0,1-13.1,13.1H36.37a13.11,13.11,0,0,1-13.1-13.1h0V36.37a13.11,13.11,0,0,1,13.1-13.1H63.2a13.1,13.1,0,0,1,13.1,13.1h0Z"/><path id="Path_2055" data-name="Path 2055" class="cls-2" d="M49.79,32.62A17.17,17.17,0,1,0,67,49.79,17.17,17.17,0,0,0,49.79,32.62Zm0,27.66a10.49,10.49,0,1,1,10.5-10.49h0a10.5,10.5,0,0,1-10.5,10.49Z"/><circle id="Ellipse_87" data-name="Ellipse 87" class="cls-2" cx="66.99" cy="32.75" r="4.11"/></g></g></g></svg>