<svg xmlns="http://www.w3.org/2000/svg" width="39" height="26.923" viewBox="0 0 39 26.923">
  <path id="Path_2614" data-name="Path 2614" d="M1,92.932a.974.974,0,0,1,.312-.307,3.16,3.16,0,0,1,.962-.346,16.924,16.924,0,0,1,2.092-.01,3.457,3.457,0,0,1,2.9,1.559c1.271-1.045,2.538-2.079,3.8-3.124,1.077-.894,2.128-1.822,3.22-2.695A5.473,5.473,0,0,1,17.448,86.8a5.733,5.733,0,0,1,4.094,1.388,8.342,8.342,0,0,1,.678.692c1,1.034,2,2.061,2.981,3.108a1.015,1.015,0,0,0,.82.362c3.527-.015,7.053.008,10.58-.017A3.443,3.443,0,0,1,39.831,94.7c.019.056.017.194.074.217a4.845,4.845,0,0,1,0,1.9c-.056.2-.059.2-.076.264a3.5,3.5,0,0,1-3.317,2.4c-1.838-.059-3.679-.015-5.518-.015h-.442a4.074,4.074,0,0,1-.212,2.849,3.394,3.394,0,0,1-2.081,1.771c.487,2.235-.14,3.895-2.282,4.772a4.614,4.614,0,0,1-.072,2.628,3.439,3.439,0,0,1-2.936,2.212c-2.081,0-4.164.066-6.241-.022a30.938,30.938,0,0,1-4.266-.53c-1.288-.237-2.551-.619-3.82-.958a11.42,11.42,0,0,1-1.1-.414,3.469,3.469,0,0,1-1.472,1.506,4.363,4.363,0,0,1-1.3.4c-.692.066-1.4-.007-2.091.025a1.761,1.761,0,0,1-1.667-.586Q.991,103.065,1,92.932m4.495,2.905a1.016,1.016,0,0,0-.587-.959,3.666,3.666,0,0,0-1.6-.163v16.523c.37,0,.722,0,1.074,0,.692,0,1.086-.391,1.167-1.159.008-.078.022-.156.022-.234q0-6.8,0-13.605a2.748,2.748,0,0,0-.07-.4m23.026-1.124H20.606c-.863,0-1.725.008-2.588,0a1.152,1.152,0,0,1-1.085-1.205,1.116,1.116,0,0,1,1.09-1.17c.811.024,1.624.006,2.435.006h1.75c-.747-.774-1.4-1.5-2.11-2.174a3.214,3.214,0,0,0-4.195-.3c-1.191.935-2.356,1.906-3.525,2.871-1.424,1.177-2.837,2.367-4.259,3.545a.7.7,0,0,0-.277.614c.013,3.847.009,7.694.009,11.541,0,.847,0,.853.756,1.13a26.671,26.671,0,0,0,7.747,1.643c2.138.114,4.287.029,6.43.019a1.076,1.076,0,0,0,.984-1.052,1.14,1.14,0,0,0-1.2-1.229,1.223,1.223,0,0,1-1.03-1.365,1.177,1.177,0,0,1,1.275-1.085c.734-.039,1.471,0,2.207-.011a1.072,1.072,0,0,0,1.036-1.079,1.146,1.146,0,0,0-1.189-1.207c-.761-.022-1.522-.019-2.283,0a1.235,1.235,0,0,1,.289-2.451c1.471-.014,2.943,0,4.415-.006a1.044,1.044,0,0,0,1.053-1.1,1.153,1.153,0,0,0-1.209-1.188c-1.446-.012-2.892,0-4.338,0a1.112,1.112,0,0,1-1.236-1.223c0-.758.424-1.149,1.245-1.149H35.207c.393,0,.787.01,1.18,0a1.249,1.249,0,0,0,1.246-1.118,1.2,1.2,0,0,0-1.272-1.251Z" transform="translate(-1 -86.79)" fill="#e4801d"/>
</svg>
