<svg xmlns="http://www.w3.org/2000/svg" viewBox="0 0 24 26.73"><g id="Layer_2" data-name="Layer 2"><g id="Layer_1-2" data-name="Layer 1"><path d="M24,26V.73c0-.56-.18-.73-.75-.73H.75C.17,0,0,.17,0,.76V26a2.44,2.44,0,0,0,0,.27.54.54,0,0,0,.71.48A1.91,1.91,0,0,0,1,26.54l10.7-6.23a.47.47,0,0,1,.52,0l6.62,3.86,4.2,2.44a.57.57,0,0,0,.82-.13A.8.8,0,0,0,24,26Zm-1.12-1.14v.33l-2.35-1.36-8.08-4.71a.78.78,0,0,0-.9,0L1.4,25c-.28.16-.28.16-.28-.17V1.46c0-.26,0-.35.33-.35q10.55,0,21.09,0c.29,0,.34.08.34.35Q22.87,13.16,22.88,24.86Z"/></g></g></svg>