<svg xmlns="http://www.w3.org/2000/svg" viewBox="0 0 24.5 25.4"><g id="Layer_2" data-name="Layer 2"><g id="Layer_1-2" data-name="Layer 1"><path d="M20.66,21.59a.36.36,0,0,1,.08-.51A12.25,12.25,0,1,0,0,12.3a12.8,12.8,0,0,0,.19,2.1A12.28,12.28,0,0,0,15.3,24.12a1.1,1.1,0,0,1,.57,0l5.42,1.25a.66.66,0,0,0,.75-.22.69.69,0,0,0,0-.78C21.59,23.44,21.14,22.51,20.66,21.59ZM16,22.83a1.91,1.91,0,0,0-.95,0A11,11,0,1,1,23,10a10.61,10.61,0,0,1-3.39,10.41l-.22.2a.64.64,0,0,0-.16.89c.38.76.76,1.51,1.16,2.32C18.87,23.49,17.45,23.17,16,22.83Z"/></g></g></svg>