<svg xmlns="http://www.w3.org/2000/svg" viewBox="0 0 24.02 21.36"><g id="Layer_2" data-name="Layer 2"><g id="Layer_1-2" data-name="Layer 1"><path d="M22.67,2.82A6.42,6.42,0,0,0,15.88.17a6.58,6.58,0,0,0-3.72,2.52c-.12.16-.17.2-.31,0A6.79,6.79,0,0,0,10,.94,6,6,0,0,0,5.69.09,6.26,6.26,0,0,0,2.34,1.67,7,7,0,0,0,.18,5.52a4.49,4.49,0,0,1-.18.9v.24s0,.06,0,.1v.08s0,.07,0,.1v.61a.06.06,0,0,1,0,.09V8c.09.06.07.17.08.25a8.49,8.49,0,0,0,1.41,3.58,20.78,20.78,0,0,0,3.59,4C7,17.56,9,19.21,11,20.91a2,2,0,0,0,.38.27,1.42,1.42,0,0,0,1.7-.26l3.3-2.84A53.69,53.69,0,0,0,21,13.8a11.69,11.69,0,0,0,2.33-3.37A7.66,7.66,0,0,0,22.67,2.82ZM21.37,11a20.61,20.61,0,0,1-3.57,3.89C16,16.6,14,18.18,12.17,19.81c-.09.07-.15.17-.29,0C9.69,17.94,7.43,16.1,5.3,14.1a17.9,17.9,0,0,1-2.66-3A6.56,6.56,0,0,1,1.79,5,5,5,0,0,1,5.64,1.52,4.74,4.74,0,0,1,10.24,3a8,8,0,0,1,1,1.26.89.89,0,0,0,1.59,0L13,4A5.88,5.88,0,0,1,15.21,1.9a4.75,4.75,0,0,1,4.7.23,5.44,5.44,0,0,1,2.64,4.3c0,.26,0,.53.06.79A6.85,6.85,0,0,1,21.37,11Z"/></g></g></svg>