<svg xmlns="http://www.w3.org/2000/svg" viewBox="0 0 24.02 23.98"><g id="Layer_2" data-name="Layer 2"><g id="Layer_1-2" data-name="Layer 1"><path d="M24,0a.68.68,0,0,1-.27.1L1.44,7.2,0,7.66l.24.13,10.32,5.35a.71.71,0,0,1,.32.32q2.67,5.17,5.36,10.34c0,.06.05.14.12.18a.61.61,0,0,0,.05-.12Q20,12.75,23.51,1.61A13.56,13.56,0,0,1,24,.09S24.06,0,24,0ZM11,11.77l-7-3.66L3.66,8l16.7-5.32-.2.21-8.84,8.85A.27.27,0,0,1,11,11.77Zm5.11,8.53c-.09,0-.09-.08-.11-.13L12.24,13c-.06-.11-.08-.18,0-.29l9-9a.27.27,0,0,1,.08-.07l0,0Q18.71,12,16.06,20.3Z"/></g></g></svg>