<svg xmlns="http://www.w3.org/2000/svg" viewBox="0 0 27.03 22.01"><defs><style>.cls-1{fill:#656565;}</style></defs><g id="Layer_2" data-name="Layer 2"><g id="Layer_1-2" data-name="Layer 1"><path id="Path_2163" data-name="Path 2163" class="cls-1" d="M13.46,22V17.09c-1.85,0-3.51.1-5.14,0A8.58,8.58,0,0,1,0,9.39C-.31,5.07,2.31,1.08,6.35.3A39.6,39.6,0,0,1,13,0c1.89,0,3.8,0,5.7,0A8.38,8.38,0,0,1,26.39,5.4,8,8,0,0,1,24,14.84C20.78,17.29,17.35,19.39,13.46,22Zm2.62-4.46c2-1.29,3.76-2.35,5.44-3.5,2.78-1.9,3.82-4.54,3-7.33S21.33,2.28,18,2.23c-3,0-6,0-9,0-4.18,0-6.74,2.42-6.75,6.29,0,3.7,2.71,6.28,6.79,6.36,2.12,0,4.24,0,6.4,0Z"/><path id="Path_2165" data-name="Path 2165" class="cls-1" d="M7.74,6.44H19v.45H7.75Z"/><path id="Path_2166" data-name="Path 2166" class="cls-1" d="M15.39,10.68H7.62v-.54h7.77Z"/></g></g></svg>