<svg xmlns="http://www.w3.org/2000/svg" viewBox="0 0 18 18"><defs><style>.cls-1{fill:#ffc477;}.cls-2{fill:#3b2717;}.cls-3{fill:#fff;}</style></defs><g id="Layer_2" data-name="Layer 2"><g id="Layer_1-2" data-name="Layer 1"><g id="bulb"><circle id="Ellipse_113" data-name="Ellipse 113" class="cls-1" cx="9" cy="9" r="9"/><g id="bulb-2"><path id="Path_2176" data-name="Path 2176" class="cls-2" d="M9.21,1a.43.43,0,0,1,.24.44c0,.52,0,1,0,1.55a.28.28,0,0,1-.21.31.53.53,0,0,1-.35-.09c-.06,0-.09-.15-.09-.23,0-.54,0-1.09,0-1.63A.38.38,0,0,1,9,1Z"/><path id="Path_2177" data-name="Path 2177" class="cls-2" d="M4.58,2.57c.24-.31.43-.31.67,0s.49.63.73.94A.34.34,0,0,1,6,4L6,4c-.16.13-.35.08-.51-.11L4.58,2.79Z"/><path id="Path_2178" data-name="Path 2178" class="cls-2" d="M7,14.18c0-.44,0-.88-.06-1.32a2,2,0,0,0-.66-1.3A4.26,4.26,0,0,1,8.66,4.17a4.2,4.2,0,0,1,4.27,2.4,4.28,4.28,0,0,1-.86,4.84,2.23,2.23,0,0,0-.74,1.11,9.26,9.26,0,0,0-.11,1.17c0,.5,0,1,0,1.49a1.11,1.11,0,0,1-1,1.2H8.23a1.11,1.11,0,0,1-1.2-1,.49.49,0,0,1,0-.17v-1Zm3.47-1a.14.14,0,0,0,0-.06,1.94,1.94,0,0,0,0-.24,2.84,2.84,0,0,1,.9-1.89A3.55,3.55,0,0,0,9.19,4.85a3.47,3.47,0,0,0-1.35.24A3.57,3.57,0,0,0,6.78,11a2.81,2.81,0,0,1,.91,1.85l0,.34Z"/><path id="Path_2179" data-name="Path 2179" class="cls-2" d="M12.46,4.14c-.09-.07-.22-.12-.26-.21a.38.38,0,0,1,0-.33c.28-.39.57-.77.88-1.15a.3.3,0,0,1,.43,0h0a.31.31,0,0,1,.09.42v0L12.71,4C12.67,4.06,12.57,4.08,12.46,4.14Z"/><path id="Path_2180" data-name="Path 2180" class="cls-3" d="M10.51,13.22H7.73c0-.11,0-.22,0-.34A2.75,2.75,0,0,0,6.79,11a3.57,3.57,0,0,1-.25-5,3.73,3.73,0,0,1,1.3-.91,3.53,3.53,0,0,1,4.55,2,3.49,3.49,0,0,1,.24,1.36A3.59,3.59,0,0,1,11.46,11a2.73,2.73,0,0,0-.9,1.88l0,.24A.14.14,0,0,1,10.51,13.22Z"/></g></g></g></g></svg>