<svg xmlns="http://www.w3.org/2000/svg" xmlns:xlink="http://www.w3.org/1999/xlink" viewBox="0 0 18 18"><defs><style>.cls-1{fill:none;}.cls-2{clip-path:url(#clip-path);}.cls-3{fill:url(#linear-gradient);}.cls-4{fill:url(#linear-gradient-2);}.cls-5{fill:url(#linear-gradient-3);}.cls-6{fill:#4e506a;}.cls-7{fill:url(#linear-gradient-4);}</style><clipPath id="clip-path" transform="translate(0 0.01)"><rect class="cls-1" width="18" height="18"/></clipPath><linearGradient id="linear-gradient" x1="-557.53" y1="698.95" x2="-557.53" y2="699.84" gradientTransform="matrix(18, 0, 0, -18, 10044.62, 12599.3)" gradientUnits="userSpaceOnUse"><stop offset="0" stop-color="#feea70"/><stop offset="1" stop-color="#f69b30"/></linearGradient><linearGradient id="linear-gradient-2" x1="-506.89" y1="673.69" x2="-506.89" y2="674.69" gradientTransform="matrix(5.35, 0, 0, -6.75, 2720.55, 4559.23)" gradientUnits="userSpaceOnUse"><stop offset="0" stop-color="#472315"/><stop offset="1" stop-color="#8b3a0e"/></linearGradient><linearGradient id="linear-gradient-3" x1="-540.98" y1="613.71" x2="-540.98" y2="614.89" gradientTransform="matrix(10.15, 0, 0, -2.86, 5501.72, 1769.77)" gradientUnits="userSpaceOnUse"><stop offset="0" stop-color="#191a33"/><stop offset="0.87" stop-color="#3b426a"/></linearGradient><linearGradient id="linear-gradient-4" x1="-542.59" y1="504.85" x2="-542.59" y2="505.81" gradientTransform="matrix(10.6, 0, 0, -1.41, 5760.87, 729.56)" gradientUnits="userSpaceOnUse"><stop offset="0" stop-color="#e78e0d"/><stop offset="1" stop-color="#cb6000"/></linearGradient></defs><g id="Layer_2" data-name="Layer 2"><g id="Layer_1-2" data-name="Layer 1"><g class="cls-2"><g id="wow"><path id="Path_2126" data-name="Path 2126" class="cls-3" d="M18,9a9,9,0,1,1-2.63-6.37A9,9,0,0,1,18,9" transform="translate(0 0.01)"/><path id="Path_2127" data-name="Path 2127" class="cls-4" d="M6.35,12.31c-.17,2.07.82,3.5,2.65,3.5s2.84-1.43,2.66-3.5S10.4,9.06,9,9.06,6.52,10.17,6.35,12.31Z" transform="translate(0 0.01)"/><path id="Path_2128" data-name="Path 2128" class="cls-5" d="M3.94,6.19a1.43,1.43,0,1,1,2.81.52A1.46,1.46,0,0,1,5.34,7.88,1.57,1.57,0,0,1,3.94,6.19Zm7.31,0a1.43,1.43,0,1,1,1.41,1.69,1.58,1.58,0,0,1-1.41-1.69Z" transform="translate(0 0.01)"/><path id="Path_2129" data-name="Path 2129" d="M3.94,6.19a1.43,1.43,0,1,1,2.81.52A1.46,1.46,0,0,1,5.34,7.88,1.57,1.57,0,0,1,3.94,6.19Zm7.31,0a1.43,1.43,0,1,1,1.41,1.69,1.58,1.58,0,0,1-1.41-1.69Z" transform="translate(0 0.01)"/><path id="Path_2130" data-name="Path 2130" class="cls-6" d="M5,5.14a.4.4,0,0,1,.27.49v0A.45.45,0,0,1,4.8,6a.41.41,0,0,1-.27-.5v0A.45.45,0,0,1,5,5.14Zm7.49.07a.46.46,0,0,1,.3.58h0a.51.51,0,0,1-.56.4.45.45,0,0,1-.3-.56v0a.49.49,0,0,1,.55-.39Z" transform="translate(0 0.01)"/><path id="Path_2131" data-name="Path 2131" d="M12.45,1.9h.18a2.25,2.25,0,0,1,1.54.63.37.37,0,0,1,.13.28.42.42,0,0,1-.1.3l-.13.09h-.3l-.13-.09a1.45,1.45,0,0,0-1.13-.42.93.93,0,0,0-.66.37.38.38,0,0,1-.11.11.38.38,0,0,1-.15,0,.22.22,0,0,1-.16,0l-.13-.06a.43.43,0,0,1-.15-.27.4.4,0,0,1,.07-.3,1.66,1.66,0,0,1,.54-.48,1.68,1.68,0,0,1,.69-.21Zm-8.63.63A2.39,2.39,0,0,1,5.38,1.9a1.66,1.66,0,0,1,1.4.7.43.43,0,0,1,.08.29.37.37,0,0,1-.16.27.27.27,0,0,1-.14.07.22.22,0,0,1-.16,0,.33.33,0,0,1-.14,0l-.11-.11a1.25,1.25,0,0,0-.3-.26.94.94,0,0,0-.37-.11,1.46,1.46,0,0,0-1.12.41.42.42,0,0,1-.14.09h-.3L3.8,3.16a.43.43,0,0,1-.1-.29.42.42,0,0,1,.12-.28Z" transform="translate(0 0.01)"/><path id="Path_2132" data-name="Path 2132" class="cls-7" d="M12.45,1.9h.18a2.25,2.25,0,0,1,1.54.63.37.37,0,0,1,.13.28.42.42,0,0,1-.1.3l-.13.09h-.3l-.13-.09a1.45,1.45,0,0,0-1.13-.42.93.93,0,0,0-.66.37.38.38,0,0,1-.11.11.38.38,0,0,1-.15,0,.22.22,0,0,1-.16,0l-.13-.06a.43.43,0,0,1-.15-.27.4.4,0,0,1,.07-.3,1.66,1.66,0,0,1,.54-.48,1.68,1.68,0,0,1,.69-.21Zm-8.63.63A2.39,2.39,0,0,1,5.38,1.9a1.66,1.66,0,0,1,1.4.7.43.43,0,0,1,.08.29.37.37,0,0,1-.16.27.27.27,0,0,1-.14.07.22.22,0,0,1-.16,0,.33.33,0,0,1-.14,0l-.11-.11a1.25,1.25,0,0,0-.3-.26.94.94,0,0,0-.37-.11,1.46,1.46,0,0,0-1.12.41.42.42,0,0,1-.14.09h-.3L3.8,3.16a.43.43,0,0,1-.1-.29.42.42,0,0,1,.12-.28Z" transform="translate(0 0.01)"/></g></g></g></g></svg>