<svg xmlns="http://www.w3.org/2000/svg" viewBox="0 0 18 16.93"><defs><style>.cls-1{fill:#8e8e8e;}</style></defs><g id="Layer_2" data-name="Layer 2"><g id="Layer_1-2" data-name="Layer 1"><path class="cls-1" d="M16.54,1.55A4.53,4.53,0,0,0,13.15,0,5,5,0,0,0,9,2.46,5,5,0,0,0,4.85,0,4.53,4.53,0,0,0,1.46,1.55,5.09,5.09,0,0,0,0,5.14,9.62,9.62,0,0,0,1.08,9.38a16.17,16.17,0,0,0,2.55,3.81,18.76,18.76,0,0,0,3,2.66A4.89,4.89,0,0,0,9,16.93H9a4.92,4.92,0,0,0,2.39-1.08,18.4,18.4,0,0,0,3-2.66,16.17,16.17,0,0,0,2.55-3.81A9.62,9.62,0,0,0,18,5.14,5.09,5.09,0,0,0,16.54,1.55ZM16,9.34a14,14,0,0,1-2.27,3.38,16.5,16.5,0,0,1-2.64,2.37,4.36,4.36,0,0,1-2.13,1H9a4.32,4.32,0,0,1-2.12-1,16.44,16.44,0,0,1-2.63-2.37A14,14,0,0,1,2,9.34,8.57,8.57,0,0,1,1,5.57,4.53,4.53,0,0,1,2.3,2.38,4,4,0,0,1,5.31,1,4.51,4.51,0,0,1,9,3.18,4.51,4.51,0,0,1,12.69,1a4,4,0,0,1,3,1.38A4.53,4.53,0,0,1,17,5.57,8.57,8.57,0,0,1,16,9.34Z"/></g></g></svg>