<svg xmlns="http://www.w3.org/2000/svg" viewBox="0 0 20 14.58"><defs><style>.cls-1{fill:#8e8e8e;}</style></defs><g id="Layer_2" data-name="Layer 2"><g id="Layer_1-2" data-name="Layer 1"><g id="retweet"><path id="Path" class="cls-1" d="M20,10.75a1,1,0,0,1-.26.72l-2.53,2.82a.85.85,0,0,1-1.2.08l-.09-.08-2.53-2.82a1.11,1.11,0,0,1,0-1.43.85.85,0,0,1,1.2-.09l.08.09,1,1.11V3.31a1.31,1.31,0,0,0-.35-.92A1.05,1.05,0,0,0,14.5,2H10.6a.81.81,0,0,1-.63-.3A1,1,0,0,1,9.7,1,1.07,1.07,0,0,1,10,.29.86.86,0,0,1,10.6,0h3.9a2.73,2.73,0,0,1,2.1,1,3.37,3.37,0,0,1,.87,2.34v7.85l1-1.12a.82.82,0,0,1,.64-.29.84.84,0,0,1,.64.29A1,1,0,0,1,20,10.75Z"/><path id="Path-2" class="cls-1" d="M5.5,12.56H9.4a.81.81,0,0,1,.63.3,1.11,1.11,0,0,1,0,1.43.83.83,0,0,1-.63.29H5.5a2.7,2.7,0,0,1-2.1-1,3.35,3.35,0,0,1-.87-2.34V3.43l-1,1.11a.79.79,0,0,1-.64.29.84.84,0,0,1-.64-.29A1,1,0,0,1,0,3.83a1,1,0,0,1,.28-.72L2.81.29A.79.79,0,0,1,3.44,0a.87.87,0,0,1,.64.29L6.61,3.11a1,1,0,0,1,.26.72,1,1,0,0,1-.26.71.84.84,0,0,1-1.17.1l-.1-.1-1-1.11v7.84a1.31,1.31,0,0,0,.35.92A1.05,1.05,0,0,0,5.5,12.56Z"/></g></g></g></svg>