<svg xmlns="http://www.w3.org/2000/svg" viewBox="0 0 18.36 18.37"><defs><style>.cls-1{fill:#8e8e8e;}</style></defs><g id="Layer_2" data-name="Layer 2"><g id="Layer_1-2" data-name="Layer 1"><g id="Layer_2-2" data-name="Layer 2"><g id="Layer_1-2-2" data-name="Layer 1-2"><path class="cls-1" d="M9.14,18.37H2.31A2.15,2.15,0,0,1,0,16.08c0-1.65,0-3.3,0-4.95,0-.43.13-.76.59-.85s.77.26.77.83c0,1.55,0,3.1,0,4.65,0,1,.18,1.2,1.2,1.2H15.84c1,0,1.16-.2,1.16-1.17V11.2c0-.63.24-1,.69-.92s.67.46.67,1c0,1.63,0,3.26,0,4.88a2.13,2.13,0,0,1-2.29,2.25Z"/><path class="cls-1" d="M8.48,2.54,5.81,5.12c-.25.24-.47.49-.73.73a.63.63,0,0,1-1,0,.66.66,0,0,1,0-1c0-.06.11-.11.17-.17L8.48.44c.57-.58.83-.59,1.4,0l4.2,4.26c.35.35.56.71.18,1.15s-.71.28-1.18-.2L10.4,2.94,10,2.57c-.2.21-.11.44-.11.65,0,2.73,0,5.47,0,8.21a3,3,0,0,1,0,.6.64.64,0,0,1-.69.55A.62.62,0,0,1,8.53,12a2.93,2.93,0,0,1,0-.66V2.54Z"/></g></g></g></g></svg>