<svg xmlns="http://www.w3.org/2000/svg" viewBox="0 0 18 18"><defs><style>.cls-1{fill:#58bbff;}.cls-2{fill:#fff;}</style></defs><g id="Layer_2" data-name="Layer 2"><g id="Layer_1-2" data-name="Layer 1"><g id="verified"><path id="Path" class="cls-1" d="M18,9.39a3.57,3.57,0,0,1-.45,1.78,3.33,3.33,0,0,1-1.22,1.25,2.13,2.13,0,0,1,0,.44,3.39,3.39,0,0,1-1,2.43,3.14,3.14,0,0,1-3.45.78,3.49,3.49,0,0,1-1.21,1.4,3.16,3.16,0,0,1-3.49,0,3.42,3.42,0,0,1-1.2-1.41,2.81,2.81,0,0,1-1.15.22,3.1,3.1,0,0,1-2.31-1,3.37,3.37,0,0,1-1-2.43,3.27,3.27,0,0,1,0-.44A3.33,3.33,0,0,1,.45,11.17,3.57,3.57,0,0,1,0,9.39,3.53,3.53,0,0,1,.5,7.58,3.21,3.21,0,0,1,1.85,6.35a3.33,3.33,0,0,1-.22-1.21,3.4,3.4,0,0,1,1-2.43,3.1,3.1,0,0,1,2.31-1,3.26,3.26,0,0,1,1.15.22A3.56,3.56,0,0,1,7.26.53a3.11,3.11,0,0,1,3.48,0A3.56,3.56,0,0,1,12,1.93a3.14,3.14,0,0,1,3.45.78,3.37,3.37,0,0,1,1,2.43,3.26,3.26,0,0,1-.2,1.2A3.12,3.12,0,0,1,17.5,7.58,3.53,3.53,0,0,1,18,9.39Z"/><path id="Path-2" class="cls-2" d="M5,9.79a.66.66,0,0,0,.2.5l2.3,2.3a.9.9,0,0,0,.6.23.59.59,0,0,0,.51-.34l4.13-6.19a.66.66,0,0,0,.1-.53.65.65,0,0,0-.3-.45A.76.76,0,0,0,12,5.2a.73.73,0,0,0-.47.29L7.88,11,6.21,9.29a.68.68,0,0,0-.52-.21.75.75,0,0,0-.5.21A.64.64,0,0,0,5,9.79Z"/></g></g></g></svg>