<svg xmlns="http://www.w3.org/2000/svg" viewBox="0 0 180.98 176.32"><g id="Layer_2" data-name="Layer 2"><g id="Layer_1-2" data-name="Layer 1"><path d="M173.65,30.41C157.77-2.58,123.89-9.88,99,14.62c-6.65,6.54-10,7-16.84.08C60.79-6.85,31.44-4.39,13.73,20-1.78,41.4-4,65,6.25,89c16.14,37.93,46.33,63.29,79.43,85.75,4,2.72,7.72,1.7,11.22-.84,7.55-5.48,15-11.09,22.51-16.64l5.81-5.23h0a192.72,192.72,0,0,0,34.52-36.36C178.63,89.7,188.81,61.9,173.65,30.41ZM163.29,80.29c-8.23,23.68-24.77,41.36-42.73,57.93-1.58,1.46-3.13,3-4.7,4.45l-4.08,3.49a13.37,13.37,0,0,0-1.64.85c-6.79,4.71-12.66,14.11-20.43,13.07-7-.94-13.15-8.72-19.44-13.77C52.43,132,36.49,115.84,24.76,96,9.67,70.44,11.15,42.5,28.38,24.36c12-12.62,28.48-13.58,41.49-2.1A131.82,131.82,0,0,1,84.32,36.85c4.74,5.77,8.39,4.68,12.69-.24,3.89-4.46,8-8.75,12.29-12.81,14.54-13.77,33-12.72,45.51,2.93C167.74,42.84,170,61,163.29,80.29Z"/></g></g></svg>