<svg xmlns="http://www.w3.org/2000/svg" viewBox="0 0 171.23 175.67"><g id="Layer_2" data-name="Layer 2"><g id="Layer_1-2" data-name="Layer 1"><path d="M169.06,46.19C162.64,16.47,141.74.05,111.45.08H85.78v0C75.22.05,64.66.21,54.11,0c-12.29-.23-23,3.67-31.87,12.06-19.4,18.34-25.11,41-21,66.84C4.71,100.3,20.94,128.27,51.68,130c5.45.3,6.53,2.51,6.39,7.35-.3,10.26-.13,20.54-.07,30.81,0,8.19,1.74,9.33,8.86,5.3,24.52-13.86,48.64-28.35,71-45.54C165.05,107,176.37,80,169.06,46.19ZM133.53,114.5c-18.58,15.45-39.21,27.9-62,41,0-11.25-.18-20.58.06-29.89.17-6.11-2.14-8.59-8.46-8.75-26.14-.7-38.51-8.73-46.17-29.3C8.54,65.09,14,37.14,29.67,22.69c7.15-6.58,15.53-10.17,25.44-10.11,18.8.12,37.64.89,56.39-.13C138.77,11,153,31.81,156.91,50.94,162.27,76.86,153.43,98,133.53,114.5Z"/></g></g></svg>