<svg xmlns="http://www.w3.org/2000/svg" viewBox="0 0 241.94 175.88"><g id="Layer_2" data-name="Layer 2"><g id="Layer_1-2" data-name="Layer 1"><path d="M192.11,150.1c0-41.24.15-81.08-.11-120.92-.06-9.65-7.18-13-15.57-13.8C156,13.5,135.52,15,115.06,14.54c-5.57-.11-11.14,0-16.7-.23-3.93-.16-6.55-2.44-6.61-6.37,0-3.62,1.78-7.27,5.71-7.22C125,1.11,152.73-1.84,180.08,2c19.14,2.69,26.55,13.3,26.63,33,.15,37.84,0,75.67,0,115.21,7.66-8.11,14.54-15.25,21.24-22.56,3.21-3.5,6.6-6.26,11-2.48s3.34,7.94-.43,11.91q-16.32,17.2-32.43,34.59c-4.57,4.95-8.78,5-13.34.07q-16.09-17.4-32.36-34.65c-3.48-3.66-4.74-7.55-1.07-11.37,4.49-4.67,8.29-1.75,11.75,2C177.77,134.82,184.46,141.93,192.11,150.1Z"/><path d="M35.62,25.14c-8.13,8.65-14.9,15.72-21.52,23-3.47,3.8-7.23,6.65-11.76,2.21S.5,42.06,4,38.35C14.44,27.31,24.87,16.27,35.07,5,40.19-.64,44.62-.68,49.75,5,60.17,16.42,70.82,27.67,81.38,39c3.33,3.58,4.67,7.68.93,11.45-4.13,4.17-7.46,1.41-11-1.86-7.44-6.84-15.33-13.19-22.22-19V84.28c0,18.61-.1,37.22,0,55.83.1,14.52,4.58,20.12,18.84,20.65,22.61.85,45.26.51,67.9.73a55.82,55.82,0,0,1,9.24.59c3.62.64,5.23,3.42,4.77,6.86-.42,3.11-1.61,6.45-5.54,6.36-28.46-.69-57.07,2.71-85.36-1.84-15.3-2.45-23.26-13.19-23.3-28.84C35.56,105.56,35.62,66.5,35.62,25.14Z"/></g></g></svg>