<svg xmlns="http://www.w3.org/2000/svg" viewBox="0 0 176.71 176.7"><g id="Layer_2" data-name="Layer 2"><g id="Layer_1-2" data-name="Layer 1"><path d="M87.89,176.7q-32.81,0-65.63,0C8.56,176.67.08,168.32,0,154.74,0,138.87.05,123,0,107.13,0,103,1.29,99.8,5.67,98.94s7.37,2.46,7.4,8c.09,14.91,0,29.81,0,44.71,0,9.74,1.75,11.48,11.51,11.48q63.89,0,127.78,0c9.3,0,11.15-1.87,11.17-11.23,0-14.71,0-29.42,0-44.13,0-6.07,2.3-9.22,6.6-8.89,5.6.44,6.52,4.43,6.5,9.13-.07,15.68,0,31.36,0,47-.07,13.2-8.64,21.59-22,21.61Q121.29,176.74,87.89,176.7Z"/><path d="M81.62,24.5C72.54,33.24,64.2,41.24,55.9,49.27c-2.37,2.28-4.57,4.75-7,7-3,2.75-6.37,3-9.29,0s-2.56-6.25,0-9.37c.49-.6,1.07-1.12,1.61-1.67q20.16-20.49,40.34-41c5.52-5.58,8-5.6,13.51-.07,13.47,13.63,26.86,27.35,40.36,40.95,3.35,3.38,5.36,6.85,1.74,11.08-2.9,3.39-6.85,2.69-11.38-1.87-8.6-8.65-17.14-17.37-25.72-26-1.19-1.21-2.49-2.32-3.83-3.55-2,2-1.11,4.22-1.11,6.19-.07,26.33,0,52.65-.06,79a26.38,26.38,0,0,1-.36,5.77c-.77,3.38-2.94,5.4-6.6,5.29a6,6,0,0,1-6.09-5.2,29.84,29.84,0,0,1-.38-6.35q0-38.91,0-77.82Z"/></g></g></svg>