<svg xmlns="http://www.w3.org/2000/svg" viewBox="0 0 221.82 210.6"><defs><style>.cls-1{fill:#3e94d1;}.cls-2{fill:#fefefe;}</style></defs><g id="Layer_2" data-name="Layer 2"><g id="Layer_1-2" data-name="Layer 1"><path class="cls-1" d="M0,105.73v-.86a2,2,0,0,0,.53-.28L24.5,78A1.74,1.74,0,0,0,25,76.49C23.8,65.23,22.66,54,21.34,42.7c-.25-2.14.23-2.93,2.4-3.37,10.79-2.16,21.54-4.55,32.33-6.74A4,4,0,0,0,59,30.42c5.5-9.63,11.08-19.21,16.52-28.87,1-1.72,1.74-1.84,3.46-1C89,5.07,99,9.48,109,14a4.47,4.47,0,0,0,4.06,0C123.19,9.47,133.33,5,143.39.4c1.78-.82,2.41-.36,3.26,1.15,5.47,9.65,11,19.26,16.56,28.87.52.9.94,1.77,2.27,2,10.22,2.08,20.41,4.3,30.61,6.44,4.76,1,4.84,1,4.38,5.71q-1.51,15.53-3.2,31a3.25,3.25,0,0,0,.82,2.88c7.68,8.46,15.28,17,23,25.42,1,1.1,1,1.64,0,2.74-7.7,8.44-15.32,17-23,25.44a2.57,2.57,0,0,0-1,2.23c1.28,11.33,2.42,22.67,3.73,34,.22,2-.52,2.53-2.24,2.89-10.85,2.24-21.66,4.61-32.52,6.8a3.92,3.92,0,0,0-2.93,2.14c-5.51,9.63-11.07,19.23-16.54,28.88-.85,1.51-1.48,2-3.26,1.15-10.06-4.64-20.21-9.07-30.29-13.66a4.44,4.44,0,0,0-4.06,0C99,201.12,89,205.53,79,210.1c-1.72.79-2.5.66-3.46-1C70,199.33,64.41,189.68,58.87,180a3.49,3.49,0,0,0-2.6-1.92c-10.22-2.08-20.41-4.29-30.62-6.44-4.41-.92-4.42-.89-4-5.44,0-.14,0-.29,0-.43,1.06-10.34,2.09-20.68,3.24-31a3,3,0,0,0-.87-2.66c-6-6.6-11.87-13.25-17.87-19.81C4.17,110.07,2.42,107.58,0,105.73ZM157.54,81c-.37-.35-.67-.64-1-.92-2.25-2-4.59-4-6.75-6.12-1.35-1.34-2.15-1.35-3.48.16-14.53,16.39-29.16,32.7-43.7,49.08-1,1.16-1.52,1.14-2.59.06-8.7-8.8-17.49-17.49-26.18-26.3-1.23-1.24-1.86-1.15-3,.05-2,2.18-4.1,4.29-6.29,6.29-1.15,1-1.22,1.6,0,2.77,11.3,11.2,22.53,22.48,33.79,33.71,1.16,1.15,2.19,3.2,3.59,3.1,1.17-.09,2.22-2,3.27-3.23q25.65-28.71,51.29-57.43C156.82,81.85,157.13,81.47,157.54,81Z"/><path class="cls-2" d="M157.54,81c-.41.47-.72.85-1,1.22q-25.63,28.73-51.29,57.43c-1,1.18-2.1,3.14-3.27,3.23-1.4.1-2.43-1.95-3.59-3.1-11.26-11.23-22.49-22.51-33.79-33.71-1.18-1.17-1.11-1.72,0-2.77,2.19-2,4.29-4.11,6.29-6.29,1.11-1.2,1.74-1.29,3-.05,8.69,8.81,17.48,17.5,26.18,26.3,1.07,1.08,1.55,1.1,2.59-.06,14.54-16.38,29.17-32.69,43.7-49.08,1.33-1.51,2.13-1.5,3.48-.16,2.16,2.13,4.5,4.09,6.75,6.12C156.87,80.36,157.17,80.65,157.54,81Z"/></g></g></svg>