<svg id="Layer_1" data-name="Layer 1" xmlns="http://www.w3.org/2000/svg" viewBox="0 0 581.53 590.84"><defs><style>.cls-1{fill:#8db230;}.cls-2{fill:#6e9b2e;}.cls-3{fill:#a1c749;}.cls-4{fill:#5f822d;}.cls-5{fill:#7d80bd;}.cls-6{fill:#5f60a8;}.cls-7{fill:#a5a1d0;}.cls-8{fill:#5a57a2;}.cls-9{fill:#e89922;}.cls-10{fill:#e4801d;}.cls-11{fill:#eba83b;}.cls-12{fill:#b76d1d;}.cls-13{fill:#393e46;}</style></defs><polygon class="cls-1" points="136.42 87.08 276.22 120.73 136.42 264.32 162.48 156.75 136.42 87.08"/><polygon class="cls-2" points="261.53 335.41 136.42 264.32 189.72 209.58 261.53 335.41"/><polygon class="cls-3" points="162.48 156.75 276.22 120.73 136.42 87.08 162.48 156.75"/><polygon class="cls-4" points="136.42 264.32 198.98 225.8 189.72 209.58 136.42 264.32"/><polygon class="cls-5" points="442.18 88.66 343.12 192.88 288.7 0 368.82 76.38 442.18 88.66"/><polygon class="cls-6" points="164.57 72.78 288.7 0 309.45 73.54 164.57 72.78"/><polygon class="cls-7" points="368.82 76.38 343.12 192.88 442.18 88.66 368.82 76.38"/><polygon class="cls-8" points="288.7 0 290.77 73.44 309.45 73.54 288.7 0"/><polygon class="cls-9" points="288.28 352.71 250.1 214.07 443.41 266.98 336.64 296.2 288.28 352.71"/><polygon class="cls-10" points="445.11 123.09 443.41 266.98 369.71 246.81 445.11 123.09"/><polygon class="cls-11" points="336.64 296.2 250.1 214.07 288.28 352.71 336.64 296.2"/><polygon class="cls-12" points="443.41 266.98 379.43 230.86 369.71 246.81 443.41 266.98"/><path class="cls-13" d="M79.47,430.62c-4-6.74-15.15-13.13-27.95-13.13-16.5,0-24.41,6.9-24.41,15.65,0,10.27,12.12,13.14,26.26,14.82,24.58,3,47.48,9.43,47.48,37.54,0,26.27-23.23,37.55-49.5,37.55-24.08,0-42.6-7.41-51.35-29l18.52-9.6c5.22,13,18.86,18.69,33.17,18.69,14,0,27.1-4.88,27.1-17.68,0-11.11-11.61-15.65-27.27-17.34-24.08-2.86-46.3-9.26-46.3-35.69,0-24.25,23.91-34.18,45.63-34.35,18.35,0,37.37,5.22,46.3,23.41Z"/><path class="cls-13" d="M198.34,520.19V472.54H140.42v47.65H118.2V402.33h22.22V452h57.92V402.33h22V520.19Z"/><path class="cls-13" d="M325,497.8H263.33L253.23,520H229.15L282,402.16h24.24L359.13,520H334.89Zm-30.81-70.89-21.89,50.18H316Z"/><path class="cls-13" d="M473.62,520H447.19l-34.35-39.4H391.46V520H369.24V402c18.69,0,37.37.16,56.06.16,27.78.17,42.43,18.69,42.43,39.06,0,16.17-7.41,32.5-29.8,37l35.69,40.24Zm-82.16-97.15v37.72H425.3c14.15,0,20.21-9.43,20.21-18.86s-6.23-18.86-20.21-18.86Z"/><path class="cls-13" d="M538.28,485.34H504.94V520H482.72V402.16c18.52,0,37-.16,55.56-.16C595.86,402,596,485.34,538.28,485.34ZM504.94,465h33.34c28.45,0,28.28-41.75,0-41.75H504.94Z"/><path class="cls-13" d="M44.07,590.84l-4.82-10.77H13.08L8.32,590.84H4.69L24.35,547H28l19.67,43.84Zm-6.13-13.9L26.17,550.26,14.39,576.94Z"/><path class="cls-13" d="M139.65,590.84h-4.44l-15.16-16.6h-12v16.6h-3.38V547H124c9.52,0,14.34,6.83,14.4,13.66.06,7.13-4.63,13.4-14.21,13.4Zm-31.56-19.79h15.53c7.64,0,11-4.32,11.08-10.46.07-5.13-3.44-10.45-10.7-10.45H108.09Z"/><path class="cls-13" d="M232.85,584.76a22.53,22.53,0,0,1-16,6.58c-14.77,0-22.48-10.33-22.54-22.17s7.52-22.67,22.54-22.67a22.53,22.53,0,0,1,16,6.58l-2.31,2a19.19,19.19,0,0,0-13.66-5.57c-12.77,0-19.34,9-19.28,19.54.12,10.27,6.64,19.16,19.28,19.16a19.59,19.59,0,0,0,13.72-5.58Z"/><path class="cls-13" d="M323.48,590.84V570.92H295.56v19.92h-3.38V547h3.38v20.86h27.92V547h3.39v43.84Z"/><path class="cls-13" d="M387.94,590.84V547h3.32v43.84Z"/><path class="cls-13" d="M488.65,547l-18,44H467l-18-44h3.63l16.22,40.08L485,547Z"/><path class="cls-13" d="M549.16,567.23h25.67v3.07H549.16v17.28h27.68v3.26h-31V547h30.25v3.2H549.16Z"/></svg>
