<svg id="Layer_1" data-name="Layer 1" xmlns="http://www.w3.org/2000/svg" viewBox="0 0 308.69 352.71"><defs><style>.cls-1{fill:#8db230;}.cls-2{fill:#6e9b2e;}.cls-3{fill:#a1c749;}.cls-4{fill:#5f822d;}.cls-5{fill:#7d80bd;}.cls-6{fill:#5f60a8;}.cls-7{fill:#a5a1d0;}.cls-8{fill:#5a57a2;}.cls-9{fill:#e89922;}.cls-10{fill:#e4801d;}.cls-11{fill:#eba83b;}.cls-12{fill:#b76d1d;}</style></defs><polygon class="cls-1" points="0 87.08 139.81 120.73 0 264.32 26.07 156.75 0 87.08"/><polygon class="cls-2" points="125.11 335.41 0 264.32 53.3 209.58 125.11 335.41"/><polygon class="cls-3" points="26.07 156.75 139.81 120.73 0 87.08 26.07 156.75"/><polygon class="cls-4" points="0 264.32 62.56 225.8 53.3 209.58 0 264.32"/><polygon class="cls-5" points="305.76 88.66 206.7 192.88 152.28 0 232.4 76.38 305.76 88.66"/><polygon class="cls-6" points="28.15 72.78 152.28 0 173.03 73.54 28.15 72.78"/><polygon class="cls-7" points="232.4 76.38 206.7 192.88 305.76 88.66 232.4 76.38"/><polygon class="cls-8" points="152.28 0 154.35 73.44 173.03 73.54 152.28 0"/><polygon class="cls-9" points="151.86 352.71 113.68 214.07 306.99 266.98 200.22 296.2 151.86 352.71"/><polygon class="cls-10" points="308.69 123.09 306.99 266.98 233.29 246.81 308.69 123.09"/><polygon class="cls-11" points="200.22 296.2 113.68 214.07 151.86 352.71 200.22 296.2"/><polygon class="cls-12" points="306.99 266.98 243.01 230.86 233.29 246.81 306.99 266.98"/></svg>