<svg width="140" height="140" viewBox="0 0 140 140" fill="none" xmlns="http://www.w3.org/2000/svg">
<circle cx="70" cy="70" r="70" fill="#424659"/>
<path d="M91.6564 85.725C90.4774 82.9323 88.7665 80.3956 86.6189 78.2562C84.4779 76.1107 81.9416 74.4 79.1502 73.2188C79.1252 73.2062 79.1002 73.2 79.0752 73.1875C82.9689 70.375 85.5002 65.7938 85.5002 60.625C85.5002 52.0625 78.5627 45.125 70.0002 45.125C61.4377 45.125 54.5002 52.0625 54.5002 60.625C54.5002 65.7938 57.0314 70.375 60.9252 73.1937C60.9002 73.2062 60.8752 73.2125 60.8502 73.225C58.0502 74.4062 55.5377 76.1 53.3814 78.2625C51.2358 80.4035 49.5252 82.9398 48.3439 85.7313C47.1834 88.4641 46.5575 91.394 46.5002 94.3625C46.4985 94.4292 46.5102 94.4956 46.5346 94.5577C46.5589 94.6198 46.5955 94.6764 46.6421 94.7242C46.6887 94.7719 46.7444 94.8099 46.8059 94.8358C46.8674 94.8617 46.9334 94.875 47.0002 94.875H50.7502C51.0252 94.875 51.2439 94.6562 51.2502 94.3875C51.3752 89.5625 53.3127 85.0438 56.7377 81.6188C60.2814 78.075 64.9877 76.125 70.0002 76.125C75.0127 76.125 79.7189 78.075 83.2627 81.6188C86.6877 85.0438 88.6252 89.5625 88.7502 94.3875C88.7564 94.6625 88.9752 94.875 89.2502 94.875H93.0002C93.0669 94.875 93.1329 94.8617 93.1944 94.8358C93.2559 94.8099 93.3116 94.7719 93.3582 94.7242C93.4048 94.6764 93.4414 94.6198 93.4658 94.5577C93.4901 94.4956 93.5018 94.4292 93.5002 94.3625C93.4377 91.375 92.8189 88.4688 91.6564 85.725ZM70.0002 71.375C67.1314 71.375 64.4314 70.2563 62.4002 68.225C60.3689 66.1938 59.2502 63.4937 59.2502 60.625C59.2502 57.7563 60.3689 55.0562 62.4002 53.025C64.4314 50.9937 67.1314 49.875 70.0002 49.875C72.8689 49.875 75.5689 50.9937 77.6002 53.025C79.6314 55.0562 80.7502 57.7563 80.7502 60.625C80.7502 63.4937 79.6314 66.1938 77.6002 68.225C75.5689 70.2563 72.8689 71.375 70.0002 71.375Z" fill="#8E8E8E"/>
</svg>
